<svg viewBox="-3535 -5000 7070 10000" data-height="100vh" xmlns="http://www.w3.org/2000/svg">
<desc>Copyright (c) 2024 Nekostein, an unincorporated game development team. All rights reserved.</desc>

<defs>
    <g id="main-text-group">
        <g transform="scale(1,1.1)">
            <text font-family="DM Serif Display" font-size="1155" x="-3115.5" y="1000">POSTER</text>
            <text font-family="DM Serif Display" font-size="1155" x="-3115.5" y="2000">TITLE</text>
        </g>
    </g>

    <mask id="contentsizebox-mask">
        <rect x="-3115.5" y="-4645.5"
            width="6231" height="9291"
            rx="0" ry="0" stroke-width="0" fill="white" opacity="1" />
    </mask>
    <linearGradient id="bordergradient-linear" x1="0" x2="0" y1="0" y2="1">
        <stop offset="0%" stop-color="rgba(0, 33, 99, 1)" />
        <stop offset="50%" stop-color="rgba(0, 55, 166, 1)" stop-opacity="0.5" />
        <stop offset="100%" stop-color="rgba(230, 240, 255, 1)" />
    </linearGradient>
    <radialGradient id="bordergradient-radial" cy="42%" fx="45%" fy="20%" r="57%">
        <stop offset="61%" stop-color="rgba(0, 40, 136, 1)" />
        <stop offset="100%" stop-color="rgba(190, 220, 240, 1)" />
    </radialGradient>
    
</defs>


<!--
canvas size debug
<rect fill="gray" x="-3535" y="-5000" width="7070" height="10000" />
-->
<rect fill="white" x="-6000" y="-6000" width="12000" height="12000" />


<rect x="-3115.5" y="-4645.5"
    width="6231" height="9291"
    rx="0" ry="0" stroke="none" stroke-width="17" fill="white" opacity="1" />

<g mask="url(#contentsizebox-mask)">
    <polygon  stroke-width="14px"  transform="scale(1.083574759959384,0.9395192162901296) translate(22.922744807669574,30.81703203081137)"  fill="rgba(0, 45, 151, 1)"  opacity="0.002"  stroke="url(#bordergradient-radial)"  stroke-linejoin="round"  points="0 6375.21 111.36 6379.87 222.75 6378.8 333.94 6371.99 444.72 6359.84 554.95 6343.06 664.53 6322.61 773.49 6299.6 881.91 6275.13 989.94 6250.2 1097.74 6225.61 1205.52 6201.84 1313.41 6179.11 1421.51 6157.25 1529.84 6135.85 1638.3 6114.21 1746.72 6091.54 1854.86 6066.97 1962.42 6039.7 2069.08 6009.06 2174.59 5974.63 2278.71 5936.25 2381.35 5894.04 2482.51 5848.42 2582.32 5799.99 2681.06 5749.55 2779.07 5697.94 2876.76 5645.97 2974.56 5594.34 3072.85 5543.56 3171.9 5493.9 3271.87 5445.31 3372.75 5397.52 3474.32 5349.99 3576.24 5301.99 3677.97 5252.69 3778.91 5201.23 3878.41 5146.82 3975.82 5088.82 4070.6 5026.77 4162.33 4960.48 4250.8 4889.99 4335.98 4815.6 4418.08 4737.81 4497.46 4657.26 4574.67 4574.67 4650.3 4490.74 4724.96 4406.1 4799.21 4321.23 4873.46 4236.44 4947.93 4151.81 5022.62 4067.24 5097.3 3982.44 5171.49 3897 5244.58 3810.41 5315.83 3722.19 5384.48 3631.88 5449.82 3539.16 5511.31 3443.85 5568.63 3345.97 5621.7 3245.69 5670.76 3143.36 5716.35 3039.44 5759.21 2934.46 5800.27 2828.98 5840.53 2723.48 5880.96 2618.37 5922.35 2513.89 5965.29 2410.13 6009.99 2307.02 6056.31 2204.32 6103.69 2101.67 6151.22 1998.65 6197.68 1894.82 6241.65 1789.77 6281.66 1683.16 6316.27 1574.82 6344.27 1464.69 6364.78 1352.88 6377.36 1239.63 6382.07 1125.33 6379.45 1010.41 6370.56 895.32 6356.84 780.52 6340.03 666.36 6321.98 553.1 6304.56 440.86 6289.43 329.61 6277.92 219.23 6270.92 109.46 6268.78 0 6271.32 -109.47 6277.81 -219.23 6287.07 -329.49 6297.56 -440.37 6307.56 -551.84 6315.31 -663.77 6319.17 -775.9 6317.77 -887.91 6310.16 -999.43 6295.85 -1110.13 6274.84 -1219.71 6247.65 -1327.98 6215.21 -1434.89 6178.76 -1540.54 6139.73 -1645.14 6099.58 -1749.03 6059.64 -1852.62 6021 -1956.34 5984.38 -2060.59 5950.07 -2165.65 5917.94 -2271.69 5887.42 -2378.67 5857.58 -2486.4 5827.28 -2594.47 5795.23 -2702.36 5760.21 -2809.44 5721.12 -2915.06 5677.17 -3018.61 5627.94 -3119.62 5573.39 -3217.8 5513.95 -3313.11 5450.37 -3405.77 5383.73 -3496.23 5315.28 -3585.2 5246.31 -3673.51 5178.04 -3762.07 5111.46 -3851.76 5047.25 -3943.34 4985.67 -4037.32 4926.58 -4133.9 4869.42 -4232.92 4813.23 -4333.85 4756.81 -4435.79 4698.78 -4537.56 4637.73 -4637.73 4572.36 -4734.82 4501.59 -4827.37 4424.67 -4914.1 4341.25 -4994.03 4251.37 -5066.58 4155.52 -5131.64 4054.52 -5189.55 3949.5 -5241.16 3841.72 -5287.68 3732.54 -5330.61 3623.21 -5371.63 3514.84 -5412.38 3408.28 -5454.39 3304.04 -5498.85 3202.33 -5546.59 3102.99 -5597.94 3005.6 -5652.71 2909.51 -5710.24 2813.94 -5769.44 2718.07 -5828.92 2621.1 -5887.09 2522.39 -5942.37 2421.45 -5993.3 2318.03 -6038.69 2212.11 -6077.73 2103.87 -6110.08 1993.66 -6135.86 1881.97 -6155.65 1769.34 -6170.42 1656.3 -6181.38 1543.32 -6189.91 1430.77 -6197.36 1318.9 -6204.93 1207.79 -6213.54 1097.42 -6223.77 987.65 -6235.75 878.27 -6249.21 769.06 -6263.49 659.81 -6277.68 550.36 -6290.67 440.63 -6301.34 330.62 -6308.67 220.42 -6311.91 110.15 -6310.63 0 -6304.81 -109.88 -6294.84 -219.36 -6281.51 -328.38 -6265.9 -436.99 -6249.29 -545.31 -6232.96 -653.55 -6218.08 -761.95 -6205.55 -870.77 -6195.85 -980.24 -6188.96 -1090.47 -6184.34 -1201.45 -6180.92 -1313 -6177.2 -1424.76 -6171.33 -1536.2 -6161.35 -1646.63 -6145.31 -1755.32 -6121.53 -1861.52 -6088.74 -1964.55 -6046.27 -2063.94 -5994.12 -2159.45 -5933.04 -2251.17 -5864.51 -2339.56 -5790.6 -2425.4 -5713.89 -2509.85 -5637.22 -2594.29 -5563.47 -2680.25 -5495.33 -2769.31 -5435.08 -2862.91 -5384.35 -2962.23 -5344.01 -3068.06 -5314.04 -3180.71 -5293.59 -3299.9 -5280.95 -3424.81 -5273.74 -3554.05 -5269.09 -3685.78 -5263.84 -3817.83 -5254.79 -3947.84 -5238.96 -4073.48 -5213.81 -4192.59 -5177.41 -4303.39 -5128.58 -4404.62 -5066.93 -4495.61 -4992.88 -4576.4 -4907.58 -4647.64 -4812.77 -4710.61 -4710.61 -4767.06 -4603.5 -4819.08 -4493.86 -4868.88 -4383.96 -4918.62 -4275.69 -4970.25 -4170.53 -5025.29 -4069.4 -5084.77 -3972.66 -5149.13 -3880.15 -5218.2 -3791.24 -5291.26 -3704.98 -5367.14 -3620.18 -5444.32 -3535.58 -5521.11 -3449.97 -5595.85 -3362.32 -5667 -3271.84 -5733.35 -3178.05 -5794.09 -3080.77 -5848.86 -2980.14 -5897.79 -2876.54 -5941.41 -2770.52 -5980.59 -2662.73 -6016.43 -2553.82 -6050.07 -2444.39 -6082.63 -2334.9 -6114.98 -2225.67 -6147.71 -2116.83 -6181.04 -2008.34 -6214.78 -1900.05 -6248.39 -1791.7 -6281 -1682.99 -6311.56 -1573.65 -6338.98 -1463.47 -6362.18 -1352.32 -6380.35 -1240.21 -6392.94 -1127.25 -6399.83 -1013.63 -6401.31 -899.65 -6398.09 -785.59 -6391.23 -671.75 -6382.04 -558.36 -6371.96 -445.57 -6362.39 -333.44 -6354.56 -221.91 -6349.38 -110.83 -6347.31 0 -6348.36 110.81 -6351.99 221.82 -6357.22 333.17 -6362.65 444.92 -6366.66 557.01 -6367.47 669.25 -6363.41 781.33 -6353.02 892.86 -6335.22 1003.4 -6309.45 1112.53 -6275.69 1219.87 -6234.49 1325.18 -6186.97 1428.37 -6134.68 1529.55 -6079.48 1628.99 -6023.37 1727.17 -5968.35 1824.71 -5916.19 1922.29 -5868.28 2020.61 -5825.57 2120.33 -5788.4 2221.96 -5756.57 2325.8 -5729.29 2431.94 -5705.32 2540.17 -5683.06 2650.06 -5660.73 2760.92 -5636.5 2871.94 -5608.67 2982.18 -5575.83 3090.73 -5536.97 3196.77 -5491.52 3299.64 -5439.44 3398.94 -5381.11 3494.53 -5317.36 3586.6 -5249.29 3675.59 -5178.19 3762.18 -5105.38 3847.18 -5032.07 3931.48 -4959.26 4015.93 -4887.63 4101.21 -4817.52 4187.81 -4748.88 4275.91 -4681.3 4365.38 -4614.09 4455.78 -4546.38 4546.38 -4477.19 4636.27 -4405.57 4724.4 -4330.71 4809.74 -4252 4891.37 -4169.13 4968.57 -4082.08 5040.95 -3991.16 5108.45 -3896.93 5171.4 -3800.16 5230.47 -3701.73 5286.61 -3602.54 5340.99 -3503.44 5394.82 -3405.1 5449.3 -3307.98 5505.4 -3212.26 5563.81 -3117.89 5624.82 -3024.52 5688.3 -2931.63 5753.64 -2838.52 5819.83 -2744.46 5885.52 -2648.73 5949.14 -2550.68 6009.02 -2449.85 6063.6 -2345.98 6111.49 -2239.03 6151.69 -2129.2 6183.63 -2016.86 6207.27 -1902.58 6223.07 -1787 6232 -1670.78 6235.44 -1554.58 6235.06 -1438.92 6232.66 -1324.24 6230.05 -1210.77 6228.85 -1098.59 6230.39 -987.62 6235.56 -877.65 6244.78 -768.38 6257.96 -659.48 6274.52 -550.61 6293.46 -441.48 6313.49 -331.9 6333.12 -221.78 6350.84 -111.11 6365.26" />
<polygon  stroke-width="14px"  transform="scale(0.9395108928727879,0.9448143949245654) translate(-5.229032860642716,14.139527965408831)"  fill="rgba(0, 45, 151, 1)"  opacity="0.007630665109448434"  stroke="url(#bordergradient-radial)"  stroke-linejoin="round"  points="0 5800.66 101.32 5804.38 202.75 5805.89 304.18 5804.15 405.46 5798.35 506.38 5787.99 606.76 5772.92 706.42 5753.3 805.23 5729.54 903.15 5702.29 1000.19 5672.37 1096.42 5640.61 1191.99 5607.89 1287.09 5574.98 1381.91 5542.52 1476.66 5510.99 1571.56 5480.67 1666.75 5451.68 1762.35 5423.95 1858.43 5397.28 1955.01 5371.36 2052.07 5345.82 2149.54 5320.29 2247.33 5294.38 2345.35 5267.74 2443.48 5240.07 2541.62 5211.1 2639.65 5180.6 2737.43 5148.36 2834.83 5114.18 2931.67 5077.81 3027.74 5039.01 3122.76 4997.47 3216.43 4952.86 3308.36 4904.84 3398.13 4853.04 3485.32 4797.13 3569.48 4736.86 3650.2 4672.04 3727.15 4602.65 3800.11 4528.79 3868.97 4450.74 3933.8 4368.93 3994.86 4283.96 4052.57 4196.56 4107.51 4107.51 4160.43 4017.68 4212.13 3927.88 4263.49 3838.86 4315.35 3751.27 4368.47 3665.58 4423.49 3582.07 4480.84 3500.81 4540.73 3421.69 4603.15 3344.38 4667.8 3268.43 4734.19 3193.25 4801.6 3118.2 4869.2 3042.62 4936.09 2965.9 5001.33 2887.52 5064.09 2807.07 5123.65 2724.29 5179.47 2639.07 5231.24 2551.45 5278.91 2461.6 5322.63 2369.79 5362.78 2276.37 5399.93 2181.71 5434.74 2086.2 5467.92 1990.16 5500.18 1893.86 5532.13 1797.5 5564.24 1701.16 5596.78 1604.85 5629.83 1508.51 5663.21 1412 5696.56 1315.15 5729.31 1217.8 5760.77 1119.78 5790.17 1020.96 5816.7 921.28 5839.61 820.7 5858.26 719.3 5872.13 617.19 5880.93 514.51 5884.56 411.49 5883.13 308.32 5876.98 205.23 5866.6 102.4 5852.63 0 5835.83 -101.86 5816.99 -203.13 5796.87 -303.8 5776.24 -403.91 5755.72 -503.56 5735.86 -602.86 5717.04 -701.96 5699.5 -801.01 5683.31 -900.15 5668.43 -999.5 5654.65 -1099.15 5641.66 -1199.17 5629.09 -1299.58 5616.46 -1400.34 5603.27 -1501.39 5588.99 -1602.62 5573.1 -1703.87 5555.07 -1804.95 5534.44 -1905.66 5510.75 -2005.75 5483.65 -2104.97 5452.81 -2203.08 5418.04 -2299.82 5379.18 -2394.97 5336.23 -2488.32 5289.25 -2579.74 5238.43 -2669.11 5184.05 -2756.41 5126.49 -2841.66 5066.2 -2924.97 5003.68 -3006.52 4939.48 -3086.53 4874.11 -3165.29 4808.09 -3243.1 4741.84 -3320.27 4675.71 -3397.1 4609.93 -3473.83 4544.6 -3550.63 4479.68 -3627.57 4415.01 -3704.64 4350.32 -3781.68 4285.23 -3858.44 4219.33 -3934.59 4152.17 -4009.71 4083.34 -4083.34 4012.46 -4155.03 3939.28 -4224.36 3863.65 -4291.01 3785.54 -4354.77 3705.1 -4415.57 3622.58 -4473.52 3538.35 -4528.88 3452.87 -4582.11 3366.62 -4633.76 3280.13 -4684.51 3193.84 -4735.06 3108.15 -4786.13 3023.33 -4838.35 2939.55 -4892.23 2856.79 -4948.11 2774.93 -5006.11 2693.71 -5066.14 2612.76 -5127.84 2531.64 -5190.64 2449.88 -5253.78 2367 -5316.38 2282.59 -5377.44 2196.27 -5435.97 2107.81 -5491.04 2017.06 -5541.83 1924 -5587.71 1828.73 -5628.26 1731.45 -5663.33 1632.44 -5692.99 1532.02 -5717.57 1430.54 -5737.6 1328.36 -5753.76 1225.78 -5766.83 1123.06 -5777.63 1020.39 -5786.94 917.91 -5795.45 815.66 -5803.69 713.63 -5812.02 611.77 -5820.61 510.01 -5829.39 408.24 -5838.12 306.4 -5846.39 204.41 -5853.66 102.28 -5859.34 0 -5862.81 -102.35 -5863.47 -204.67 -5860.85 -306.82 -5854.55 -408.68 -5844.36 -510.08 -5830.22 -610.89 -5812.24 -711.01 -5790.69 -810.35 -5765.97 -908.9 -5738.59 -1006.67 -5709.1 -1103.71 -5678.11 -1200.14 -5646.2 -1296.07 -5613.91 -1391.68 -5581.71 -1487.11 -5549.97 -1582.53 -5518.95 -1678.1 -5488.81 -1773.93 -5459.58 -1870.1 -5431.17 -1966.68 -5403.42 -2063.67 -5376.04 -2161.02 -5348.71 -2258.64 -5321.02 -2356.38 -5292.53 -2454.07 -5262.76 -2551.45 -5231.24 -2648.25 -5197.49 -2744.18 -5161.05 -2838.89 -5121.5 -2932.05 -5078.47 -3023.33 -5031.66 -3112.39 -4980.87 -3198.98 -4926 -3282.86 -4867.04 -3363.89 -4804.13 -3442.01 -4737.52 -3517.26 -4667.57 -3589.81 -4594.75 -3659.91 -4519.61 -3727.93 -4442.77 -3794.3 -4364.84 -3859.53 -4286.44 -3924.15 -4208.14 -3988.68 -4130.4 -4053.6 -4053.6 -4119.29 -3977.95 -4186.02 -3903.53 -4253.91 -3830.24 -4322.93 -3757.87 -4392.88 -3686.06 -4463.39 -3614.38 -4533.97 -3542.33 -4604.04 -3469.39 -4672.95 -3395.1 -4740.06 -3319.02 -4804.78 -3240.87 -4866.64 -3160.44 -4925.31 -3077.68 -4980.64 -2992.67 -5032.69 -2905.63 -5081.71 -2816.84 -5128.14 -2726.68 -5172.56 -2635.55 -5215.63 -2543.83 -5258.08 -2451.88 -5300.56 -2359.96 -5343.64 -2268.24 -5387.73 -2176.78 -5432.99 -2085.53 -5479.38 -1994.33 -5526.56 -1902.95 -5573.96 -1811.09 -5620.8 -1718.45 -5666.1 -1624.73 -5708.81 -1529.67 -5747.86 -1433.1 -5782.21 -1334.93 -5810.99 -1235.16 -5833.51 -1133.92 -5849.37 -1031.4 -5858.44 -927.89 -5860.9 -823.7 -5857.24 -719.18 -5848.2 -614.67 -5834.73 -510.47 -5817.91 -406.83 -5798.91 -303.91 -5778.86 -201.8 -5758.82 -100.52 -5739.71 0 -5722.26 99.88 -5706.95 199.29 -5694.05 298.41 -5683.6 397.44 -5675.45 496.54 -5669.26 595.86 -5664.61 695.53 -5660.97 795.6 -5657.81 896.11 -5654.61 997.06 -5650.89 1098.42 -5646.23 1200.14 -5640.27 1302.16 -5632.72 1404.39 -5623.32 1506.76 -5611.84 1609.17 -5598.06 1711.5 -5581.73 1813.61 -5562.59 1915.35 -5540.34 2016.52 -5514.66 2116.88 -5485.24 2216.18 -5451.78 2314.14 -5414.04 2410.49 -5371.9 2504.96 -5325.33 2597.34 -5274.45 2687.47 -5219.57 2775.29 -5161.13 2860.86 -5099.71 2944.32 -5036.03 3025.95 -4970.83 3106.12 -4904.88 3185.26 -4838.85 3263.85 -4773.34 3342.33 -4708.72 3421.08 -4645.15 3500.37 -4582.56 3580.29 -4520.61 3660.72 -4458.74 3741.32 -4396.18 3821.54 -4332.06 3900.61 -4265.46 3977.61 -4195.49 4051.54 -4121.4 4121.4 -4042.63 4186.27 -3958.92 4245.42 -3870.31 4298.42 -3777.19 4345.16 -3680.26 4385.96 -3580.53 4421.59 -3479.23 4453.21 -3377.72 4482.39 -3277.4 4510.96 -3179.62 4540.96 -3085.52 4574.48 -2996.02 4613.47 -2911.69 4659.67 -2832.7 4714.41 -2758.86 4778.48 -2689.56 4852.1 -2623.89 4934.82 -2560.64 5025.54 -2498.43 5122.54 -2435.81 5223.62 -2371.36 5326.16 -2303.77 5427.34 -2231.96 5524.29 -2155.12 5614.28 -2072.78 5694.9 -1984.78 5764.22 -1891.32 5820.88 -1792.87 5864.21 -1690.14 5894.2 -1584 5911.55 -1475.41 5917.54 -1365.34 5913.93 -1254.69 5902.85 -1144.24 5886.6 -1034.6 5867.5 -926.19 5847.73 -819.24 5829.16 -713.78 5813.29 -609.72 5801.1 -506.83 5793.09 -404.82 5789.24 -303.39 5789.06 -202.25 5791.69 -101.17 5795.99" />
<polygon  stroke-width="14px"  transform="scale(1.0309286378801543,1.006939416124161) translate(24.782143527265667,-36.00841209762633)"  fill="rgba(0, 45, 151, 1)"  opacity="0.01792592592592592"  stroke="url(#bordergradient-radial)"  stroke-linejoin="round"  points="0 5208.06 90.81 5202.67 181.41 5195.04 271.78 5185.92 361.95 5176.08 451.99 5166.23 542.02 5156.98 632.19 5148.74 722.61 5141.66 813.41 5135.64 904.61 5130.32 996.21 5125.07 1088.09 5119.08 1180.06 5111.41 1271.84 5101.07 1363.09 5087.12 1453.43 5068.73 1542.5 5045.28 1629.93 5016.4 1715.45 4982.03 1798.89 4942.42 1880.2 4898.09 1959.46 4849.83 2036.89 4798.6 2112.83 4745.5 2187.74 4691.62 2262.11 4638.01 2336.46 4585.56 2411.27 4534.94 2486.95 4486.57 2563.77 4440.58 2641.86 4396.79 2721.18 4354.8 2801.51 4313.94 2882.47 4273.44 2963.58 4232.43 3044.24 4190.04 3123.86 4145.5 3201.86 4098.2 3277.76 4047.7 3351.2 3993.81 3422.02 3936.58 3490.24 3876.3 3556.09 3813.44 3619.98 3748.6 3682.47 3682.47 3744.23 3615.76 3805.94 3549.1 3868.27 3483.01 3931.77 3417.83 3996.83 3353.74 4063.63 3290.66 4132.1 3228.35 4201.92 3166.37 4272.51 3104.16 4343.1 3041.07 4412.76 2976.44 4480.48 2909.65 4545.24 2840.18 4606.11 2767.63 4662.29 2691.77 4713.22 2612.58 4758.61 2530.2 4798.42 2444.92 4832.94 2357.18 4862.7 2267.52 4888.47 2176.49 4911.15 2084.66 4931.74 1992.55 4951.2 1900.59 4970.43 1809.09 4990.16 1718.25 5010.89 1628.14 5032.89 1538.71 5056.14 1449.82 5080.37 1361.28 5105.1 1272.85 5129.69 1184.28 5153.37 1095.38 5175.38 1005.99 5195.02 916.02 5211.68 825.45 5224.96 734.32 5234.67 642.74 5240.83 550.83 5243.7 458.76 5243.74 366.68 5241.51 274.7 5237.68 182.9 5232.91 91.34 5227.78 0 5222.75 -91.16 5218.08 -182.22 5213.82 -273.24 5209.77 -364.3 5205.55 -455.43 5200.55 -546.6 5194.06 -637.75 5185.31 -728.75 5173.54 -819.41 5158.09 -909.51 5138.47 -998.82 5114.4 -1087.1 5085.87 -1174.17 5053.17 -1259.9 5016.81 -1344.25 4977.57 -1427.3 4936.38 -1509.2 4894.27 -1590.24 4852.29 -1670.78 4811.43 -1751.22 4772.52 -1832 4736.15 -1913.53 4702.66 -1996.16 4672.09 -2080.15 4644.15 -2165.6 4618.3 -2252.5 4593.76 -2340.64 4569.56 -2429.68 4544.67 -2519.15 4518.04 -2608.49 4488.71 -2697.09 4455.88 -2784.34 4418.95 -2869.7 4377.6 -2952.73 4331.76 -3033.13 4281.64 -3110.79 4227.68 -3185.79 4170.52 -3258.36 4110.88 -3328.93 4049.58 -3398 3987.37 -3466.17 3924.92 -3534.01 3862.72 -3602.05 3801.1 -3670.68 3740.13 -3740.13 3679.69 -3810.43 3619.45 -3881.39 3558.92 -3952.58 3497.49 -4023.4 3434.53 -4093.11 3369.41 -4160.88 3301.6 -4225.86 3230.69 -4287.27 3156.44 -4344.47 3078.82 -4397.01 2997.98 -4444.69 2914.26 -4487.57 2828.17 -4526.01 2740.29 -4560.6 2651.28 -4592.16 2561.81 -4621.62 2472.47 -4650.03 2383.76 -4678.4 2296.06 -4707.63 2209.58 -4738.46 2124.37 -4771.42 2040.33 -4806.71 1957.21 -4844.28 1874.7 -4883.76 1792.4 -4924.57 1709.89 -4965.89 1626.81 -5006.8 1542.82 -5046.33 1457.68 -5083.54 1371.26 -5117.62 1283.53 -5147.96 1194.55 -5174.18 1104.47 -5196.14 1013.5 -5214 921.86 -5228.14 829.8 -5239.14 737.51 -5247.69 645.18 -5254.56 552.9 -5260.47 460.72 -5266.04 368.63 -5271.72 276.6 -5277.75 184.53 -5284.12 92.35 -5290.57 0 -5296.62 -92.54 -5301.63 -185.25 -5304.83 -278.05 -5305.44 -370.8 -5302.71 -463.34 -5296.03 -555.47 -5284.99 -647 -5269.4 -737.75 -5249.36 -827.59 -5225.23 -916.48 -5197.62 -1004.43 -5167.34 -1091.54 -5135.31 -1178.01 -5102.5 -1264.06 -5069.86 -1349.97 -5038.16 -1436.03 -5008.02 -1522.47 -4979.76 -1609.47 -4953.43 -1697.1 -4928.75 -1785.34 -4905.19 -1874.01 -4881.96 -1962.81 -4858.13 -2051.34 -4832.66 -2139.11 -4804.53 -2225.6 -4772.82 -2310.3 -4736.82 -2392.75 -4696.03 -2472.6 -4650.28 -2549.65 -4599.7 -2623.9 -4544.72 -2695.5 -4486.07 -2764.83 -4424.65 -2832.39 -4361.5 -2898.84 -4297.71 -2964.88 -4234.29 -3031.22 -4172.12 -3098.52 -4111.87 -3167.28 -4053.93 -3237.83 -3998.39 -3310.28 -3945.04 -3384.46 -3893.38 -3459.98 -3842.7 -3536.21 -3792.12 -3612.33 -3740.68 -3687.43 -3687.43 -3760.54 -3631.52 -3830.77 -3572.25 -3897.32 -3509.16 -3959.63 -3442.05 -4017.37 -3370.98 -4070.54 -3296.26 -4119.41 -3218.44 -4164.55 -3138.21 -4206.73 -3056.37 -4246.93 -2973.73 -4286.16 -2891.05 -4325.4 -2808.95 -4365.52 -2727.88 -4407.16 -2648.09 -4450.66 -2569.59 -4496.02 -2492.18 -4542.9 -2415.5 -4590.61 -2339.03 -4638.16 -2262.18 -4684.39 -2184.37 -4728 -2105.04 -4767.74 -2023.79 -4802.5 -1940.34 -4831.42 -1854.61 -4854.04 -1766.72 -4870.29 -1676.98 -4880.63 -1585.81 -4885.95 -1493.79 -4887.61 -1401.5 -4887.29 -1309.55 -4886.91 -1218.44 -4888.48 -1128.59 -4893.94 -1040.24 -4905.01 -953.44 -4923.04 -868.06 -4948.9 -783.83 -4982.86 -700.29 -5024.58 -616.94 -5073.13 -533.21 -5126.97 -448.55 -5184.12 -362.51 -5242.24 -274.73 -5298.84 -185.04 -5351.39 -93.41 -5397.54 0 -5435.29 94.87 -5463.07 190.77 -5479.89 287.19 -5485.38 383.58 -5479.8 479.42 -5463.98 574.29 -5439.28 667.86 -5407.42 759.96 -5370.38 850.58 -5330.19 939.86 -5288.83 1028.05 -5248.05 1115.51 -5209.25 1202.65 -5173.38 1289.87 -5140.93 1377.51 -5111.88 1465.81 -5085.79 1554.88 -5061.8 1644.68 -5038.8 1735 -5015.49 1825.49 -4990.57 1915.7 -4962.83 2005.11 -4931.26 2093.2 -4895.15 2179.46 -4854.15 2263.53 -4808.26 2345.14 -4757.87 2424.25 -4703.67 2500.98 -4646.58 2575.64 -4587.7 2648.71 -4528.15 2720.78 -4468.97 2792.52 -4411.06 2864.58 -4355.09 2937.54 -4301.4 3011.87 -4250.04 3087.84 -4200.73 3165.48 -4152.9 3244.6 -4105.76 3324.78 -4058.36 3405.37 -4009.69 3485.57 -3958.78 3564.5 -3904.75 3641.24 -3846.95 3714.96 -3784.93 3784.93 -3718.53 3850.66 -3647.89 3911.88 -3573.38 3968.64 -3495.59 4021.22 -3415.29 4070.18 -3333.32 4116.31 -3250.54 4160.5 -3167.73 4203.72 -3085.58 4246.93 -3004.56 4290.96 -2924.97 4336.45 -2846.87 4383.8 -2770.13 4433.14 -2694.43 4484.28 -2619.3 4536.75 -2544.2 4589.86 -2468.57 4642.71 -2391.87 4694.31 -2313.64 4743.66 -2233.53 4789.83 -2151.36 4832.04 -2067.08 4869.73 -1980.79 4902.63 -1892.73 4930.73 -1803.23 4954.32 -1712.68 4973.97 -1621.48 4990.42 -1530.04 5004.54 -1438.68 5017.28 -1347.66 5029.54 -1257.13 5042.07 -1167.15 5055.49 -1077.69 5070.15 -988.64 5086.13 -899.84 5103.26 -811.11 5121.14 -722.26 5139.16 -633.15 5156.58 -543.66 5172.62 -453.76 5186.53 -363.45 5197.64 -272.81 5205.49 -181.93 5209.82 -90.95 5210.59" />
<polygon  stroke-width="14px"  transform="scale(0.975621493166467,1.052709229290017) translate(-12.814910985116263,-89.59948043643331)"  fill="rgba(0, 45, 151, 1)"  opacity="0.03125779414991018"  stroke="url(#bordergradient-radial)"  stroke-linejoin="round"  points="0 4466.71 77.68 4450.31 155.04 4439.85 232.5 4436.38 310.51 4440.55 389.55 4452.58 470.04 4472.17 552.35 4498.56 636.72 4530.5 723.24 4566.34 811.83 4604.11 902.25 4641.68 994.09 4676.83 1086.79 4707.41 1179.69 4731.48 1272.06 4747.38 1363.16 4753.9 1452.3 4750.26 1538.87 4736.17 1622.41 4711.82 1702.61 4677.87 1779.34 4635.33 1852.66 4585.5 1922.82 4529.88 1990.18 4470.03 2055.25 4407.5 2118.56 4343.7 2180.7 4279.86 2242.2 4216.96 2303.55 4155.71 2365.12 4096.51 2427.19 4039.52 2489.91 3984.69 2553.32 3931.77 2617.37 3880.41 2681.92 3830.18 2746.83 3780.69 2811.91 3731.53 2877.01 3682.4 2942.01 3633.08 3006.84 3583.41 3071.47 3533.33 3135.94 3482.82 3200.28 3431.88 3264.52 3380.51 3328.67 3328.67 3392.68 3276.27 3456.42 3223.16 3519.64 3169.1 3582.03 3113.81 3643.15 3056.96 3702.51 2998.23 3759.57 2937.3 3813.8 2873.9 3864.7 2807.87 3911.89 2739.13 3955.09 2667.74 3994.21 2593.87 4029.35 2517.82 4060.81 2439.98 4089.06 2360.82 4114.74 2280.84 4138.62 2200.54 4161.5 2120.39 4184.22 2040.78 4207.56 1962.02 4232.17 1884.28 4258.54 1807.64 4286.98 1732.05 4317.57 1657.36 4350.15 1583.32 4384.38 1509.66 4419.76 1436.07 4455.62 1362.22 4491.26 1287.85 4525.95 1212.73 4559.02 1136.69 4589.87 1059.66 4618.06 981.6 4643.3 902.57 4665.46 822.65 4684.58 741.96 4700.83 660.66 4714.48 578.87 4725.87 496.71 4735.35 414.29 4743.23 331.68 4749.76 248.92 4755.09 166.05 4759.26 83.07 4762.18 0 4763.68 -83.15 4763.49 -166.34 4761.3 -249.53 4756.81 -332.63 4749.72 -415.55 4739.82 -498.18 4726.99 -580.4 4711.23 -662.12 4692.65 -743.24 4671.49 -823.71 4648.06 -903.49 4622.77 -982.6 4596.05 -1061.08 4568.3 -1139 4539.89 -1216.46 4511.12 -1293.54 4482.17 -1370.34 4453.1 -1446.9 4423.85 -1523.26 4394.27 -1599.38 4364.09 -1675.22 4333.01 -1750.65 4300.72 -1825.55 4266.89 -1899.74 4231.3 -1973.09 4193.79 -2045.45 4154.3 -2116.72 4112.91 -2186.87 4069.81 -2255.93 4025.28 -2324 3979.71 -2391.25 3933.48 -2457.91 3887 -2524.25 3840.65 -2590.55 3794.72 -2657.09 3749.4 -2724.1 3704.76 -2791.73 3660.71 -2860.06 3617.05 -2929.03 3573.47 -2998.5 3529.55 -3068.19 3484.82 -3137.75 3438.8 -3206.73 3391.02 -3274.67 3341.07 -3341.07 3288.64 -3405.49 3233.53 -3467.53 3175.65 -3526.92 3115.08 -3583.49 3051.96 -3637.19 2986.58 -3688.12 2919.28 -3736.51 2850.45 -3782.68 2780.48 -3827 2709.73 -3869.9 2638.54 -3911.8 2567.16 -3953.07 2495.74 -3994.02 2424.37 -4034.84 2353.05 -4075.6 2281.69 -4116.28 2210.17 -4156.72 2138.31 -4196.67 2065.94 -4235.81 1992.9 -4273.78 1919.04 -4310.24 1844.28 -4344.85 1768.57 -4377.37 1691.93 -4407.64 1614.43 -4435.6 1536.15 -4461.31 1457.25 -4484.94 1377.86 -4506.76 1298.13 -4527.11 1218.19 -4546.35 1138.15 -4564.88 1058.08 -4583.05 978.01 -4601.16 897.92 -4619.41 817.79 -4637.92 737.54 -4656.66 657.1 -4675.51 576.38 -4694.21 495.3 -4712.43 413.8 -4729.75 331.85 -4745.69 249.45 -4759.77 166.62 -4771.5 83.44 -4780.45 0 -4786.23 -83.58 -4788.54 -167.17 -4787.16 -250.61 -4781.98 -333.76 -4773 -416.47 -4760.31 -498.63 -4744.1 -580.11 -4724.64 -660.86 -4702.25 -740.82 -4677.35 -819.98 -4650.34 -898.37 -4621.7 -976.03 -4591.87 -1053.06 -4561.31 -1129.57 -4530.44 -1205.67 -4499.64 -1281.53 -4469.23 -1357.28 -4439.47 -1433.07 -4410.54 -1509.02 -4382.53 -1585.24 -4355.42 -1661.79 -4329.12 -1738.7 -4303.43 -1815.93 -4278.07 -1893.42 -4252.69 -1971.04 -4226.9 -2048.6 -4200.26 -2125.91 -4172.33 -2202.71 -4142.69 -2278.75 -4110.98 -2353.8 -4076.89 -2427.61 -4040.22 -2500 -4000.84 -2570.85 -3958.76 -2640.08 -3914.08 -2707.7 -3866.99 -2773.76 -3817.76 -2838.42 -3766.71 -2901.84 -3714.19 -2964.24 -3660.54 -3025.85 -3606.07 -3086.88 -3551.04 -3147.48 -3495.63 -3207.78 -3439.92 -3267.8 -3383.91 -3327.51 -3327.51 -3386.75 -3270.55 -3445.34 -3212.83 -3502.98 -3154.1 -3559.37 -3094.11 -3614.2 -3032.67 -3667.15 -2969.6 -3718.01 -2904.83 -3766.6 -2838.33 -3812.87 -2770.21 -3856.9 -2700.63 -3898.87 -2629.82 -3939.08 -2558.07 -3977.94 -2485.69 -4015.89 -2412.99 -4053.42 -2340.24 -4091 -2267.68 -4129.04 -2195.45 -4167.85 -2123.62 -4207.61 -2052.19 -4248.36 -1981.04 -4289.95 -1910.01 -4332.11 -1838.87 -4374.4 -1767.37 -4416.27 -1695.25 -4457.12 -1622.26 -4496.31 -1548.2 -4533.24 -1472.94 -4567.37 -1396.39 -4598.27 -1318.53 -4625.67 -1239.44 -4649.43 -1159.23 -4669.61 -1078.07 -4686.4 -996.13 -4700.12 -913.61 -4711.17 -830.71 -4720.04 -747.58 -4727.17 -664.36 -4732.99 -581.14 -4737.85 -497.97 -4741.97 -414.87 -4745.46 -331.84 -4748.29 -248.85 -4750.3 -165.88 -4751.23 -82.93 -4750.76 0 -4748.55 82.89 -4744.24 165.67 -4737.56 248.28 -4728.3 330.63 -4716.37 412.63 -4701.81 494.18 -4684.78 575.22 -4665.55 655.7 -4644.47 735.61 -4621.97 814.98 -4598.46 893.85 -4574.34 972.31 -4549.96 1050.44 -4525.55 1128.35 -4501.26 1206.11 -4477.1 1283.79 -4452.98 1361.41 -4428.7 1438.97 -4403.99 1516.42 -4378.56 1593.67 -4352.1 1670.61 -4324.35 1747.15 -4295.12 1823.17 -4264.32 1898.6 -4231.94 1973.39 -4198.1 2047.55 -4163.01 2121.16 -4126.93 2194.33 -4090.18 2267.22 -4053.05 2340.03 -4015.81 2412.94 -3978.64 2486.13 -3941.59 2559.7 -3904.6 2633.69 -3867.47 2708.03 -3829.86 2782.56 -3791.32 2856.97 -3751.33 2930.86 -3709.33 3003.76 -3664.77 3075.1 -3617.15 3144.34 -3566.09 3210.92 -3511.34 3274.38 -3452.82 3334.35 -3390.63 3390.63 -3325.02 3443.16 -3256.43 3492.09 -3185.39 3537.73 -3112.52 3580.55 -3038.5 3621.15 -2963.98 3660.21 -2889.54 3698.45 -2815.7 3736.56 -2742.81 3775.15 -2671.11 3814.74 -2600.68 3855.67 -2531.47 3898.12 -2463.28 3942.07 -2395.84 3987.35 -2328.83 4033.65 -2261.88 4080.53 -2194.63 4127.5 -2126.78 4174.04 -2058.06 4219.64 -1988.28 4263.87 -1917.32 4306.37 -1845.15 4346.9 -1771.77 4385.27 -1697.23 4421.43 -1621.61 4455.34 -1545.01 4487.02 -1467.48 4516.45 -1389.11 4543.56 -1309.92 4568.22 -1229.94 4590.2 -1149.2 4609.18 -1067.71 4624.74 -985.5 4636.43 -902.66 4643.8 -819.29 4646.44 -735.55 4644.08 -651.63 4636.61 -567.78 4624.17 -484.23 4607.16 -401.25 4586.3 -319.05 4562.57 -237.79 4537.23 -157.55 4511.74 -78.33 4487.7" />
<polygon  stroke-width="14px"  transform="scale(1.0748963701240541,1.083254548377203) translate(-0.9016829789715457,-170.74457364431692)"  fill="rgba(0, 45, 151, 1)"  opacity="0.04704532087558747"  stroke="url(#bordergradient-radial)"  stroke-linejoin="round"  points="0 4186.6 72.95 4179.48 145.63 4170.36 218 4159.66 290.05 4147.92 361.83 4135.77 433.43 4123.84 504.97 4112.69 576.61 4102.77 648.48 4094.36 720.74 4087.52 793.47 4082.07 866.72 4077.62 940.46 4073.56 1014.55 4069.14 1088.81 4063.51 1162.98 4055.8 1236.74 4045.2 1309.76 4031.02 1381.71 4012.77 1452.31 3990.2 1521.36 3963.29 1588.75 3932.3 1654.48 3897.72 1718.69 3860.23 1781.59 3820.64 1843.54 3779.81 1904.91 3738.6 1966.12 3697.73 2027.57 3657.83 2089.58 3619.26 2152.39 3582.18 2216.11 3546.52 2280.69 3511.95 2345.93 3477.99 2411.5 3443.98 2476.94 3409.21 2541.72 3372.97 2605.26 3334.58 2667.01 3293.48 2726.48 3249.29 2783.27 3201.78 2837.13 3150.96 2887.98 3096.98 2935.89 3040.2 2981.07 2981.07 3023.91 2920.16 3064.85 2858.02 3104.41 2795.23 3143.11 2732.27 3181.44 2669.54 3219.79 2607.33 3258.47 2545.8 3297.68 2484.98 3337.46 2424.81 3377.77 2365.14 3418.47 2305.79 3459.38 2246.54 3500.26 2187.2 3540.91 2127.59 3581.18 2067.6 3620.97 2007.14 3660.27 1946.2 3699.11 1884.79 3737.6 1822.95 3775.88 1760.72 3814.07 1698.13 3852.24 1635.18 3890.38 1571.82 3928.37 1507.96 3965.95 1443.49 4002.72 1378.25 4038.15 1312.07 4071.62 1244.82 4102.46 1176.36 4129.99 1106.63 4153.63 1035.62 4172.91 963.39 4187.53 890.09 4197.47 815.9 4202.92 741.09 4204.38 665.91 4202.55 590.63 4198.36 515.49 4192.86 440.69 4187.15 366.33 4182.31 292.46 4179.26 219.03 4178.74 145.92 4181.19 72.98 4186.73 0 4195.12 -73.23 4205.78 -146.87 4217.82 -221.05 4230.13 -295.8 4241.42 -371.08 4250.38 -446.73 4255.72 -522.54 4256.35 -598.19 4251.39 -673.35 4240.31 -747.68 4222.94 -820.86 4199.49 -892.63 4170.54 -962.84 4136.98 -1031.46 4099.96 -1098.58 4060.76 -1164.4 4020.75 -1229.27 3981.22 -1293.58 3943.32 -1357.79 3907.96 -1422.38 3875.78 -1487.77 3847.05 -1554.31 3821.75 -1622.23 3799.48 -1691.64 3779.63 -1762.47 3761.31 -1834.52 3743.55 -1907.43 3725.28 -1980.77 3705.48 -2053.98 3683.22 -2126.51 3657.73 -2197.79 3628.44 -2267.3 3595.01 -2334.63 3557.31 -2399.44 3515.44 -2461.53 3469.65 -2520.84 3420.35 -2577.42 3368.03 -2631.4 3313.24 -2683.01 3256.52 -2732.55 3198.37 -2780.3 3139.22 -2826.57 3079.47 -2871.65 3019.38 -2915.79 2959.19 -2959.19 2899.05 -3002.06 2839.07 -3044.53 2779.31 -3086.74 2719.85 -3128.83 2660.72 -3170.92 2601.97 -3213.16 2543.62 -3255.69 2485.69 -3298.62 2428.14 -3342.05 2370.93 -3386.03 2313.92 -3430.52 2256.94 -3475.38 2199.75 -3520.33 2142.05 -3564.97 2083.52 -3608.76 2023.81 -3651.05 1962.59 -3691.09 1899.57 -3728.11 1834.53 -3761.35 1767.37 -3790.14 1698.09 -3813.98 1626.84 -3832.59 1553.87 -3845.97 1479.58 -3854.44 1404.43 -3858.65 1328.96 -3859.57 1253.69 -3858.46 1179.13 -3856.77 1105.72 -3856.12 1033.78 -3858.1 963.47 -3864.25 894.81 -3875.87 827.68 -3893.95 761.79 -3919.08 696.73 -3951.37 632.02 -3990.44 567.14 -4035.41 501.57 -4084.96 434.86 -4137.37 366.64 -4190.68 296.68 -4242.78 224.91 -4291.52 151.38 -4334.94 76.3 -4371.28 0 -4399.18 -77.11 -4417.74 -154.58 -4426.52 -231.94 -4425.61 -308.77 -4415.57 -384.72 -4397.39 -459.56 -4372.4 -533.15 -4342.13 -605.48 -4308.24 -676.68 -4272.37 -746.93 -4236.06 -816.52 -4200.62 -885.74 -4167.08 -954.91 -4136.15 -1024.29 -4108.19 -1094.1 -4083.22 -1164.47 -4060.99 -1235.46 -4041 -1307.02 -4022.58 -1379.01 -4004.94 -1451.26 -3987.3 -1523.51 -3968.87 -1595.49 -3948.99 -1666.94 -3927.07 -1737.6 -3902.72 -1807.24 -3875.64 -1875.67 -3845.69 -1942.74 -3812.84 -2008.35 -3777.16 -2072.42 -3738.74 -2134.9 -3697.75 -2195.75 -3654.34 -2254.96 -3608.69 -2312.5 -3560.94 -2368.38 -3511.27 -2422.61 -3459.84 -2475.23 -3406.87 -2526.34 -3352.57 -2576.08 -3297.23 -2624.67 -3241.19 -2672.38 -3184.82 -2719.57 -3128.51 -2766.67 -3072.7 -2814.11 -3017.77 -2862.36 -2964.06 -2911.84 -2911.84 -2962.9 -2861.24 -3015.77 -2812.26 -3070.54 -2764.72 -3127.08 -2718.33 -3185.09 -2672.61 -3244.05 -2626.98 -3303.26 -2580.79 -3361.87 -2533.35 -3418.92 -2483.99 -3473.44 -2432.13 -3524.48 -2377.29 -3571.22 -2319.18 -3613.04 -2257.68 -3649.54 -2192.86 -3680.64 -2125.02 -3706.58 -2054.59 -3727.9 -1982.16 -3745.4 -1908.38 -3760.15 -1833.95 -3773.34 -1759.54 -3786.21 -1685.73 -3799.99 -1613 -3815.75 -1541.66 -3834.34 -1471.86 -3856.31 -1403.58 -3881.87 -1336.63 -3910.86 -1270.72 -3942.77 -1205.43 -3976.78 -1140.32 -4011.82 -1074.96 -4046.65 -1008.94 -4079.98 -941.94 -4110.56 -873.73 -4137.28 -804.21 -4159.26 -733.39 -4175.92 -661.4 -4187.02 -588.45 -4192.65 -514.79 -4193.23 -440.73 -4189.48 -366.53 -4182.33 -292.46 -4172.84 -218.69 -4162.11 -145.34 -4151.21 -72.46 -4141.06 0 -4132.41 72.13 -4125.74 144.07 -4121.3 215.99 -4119.05 288.03 -4118.72 360.34 -4119.87 433.02 -4121.88 506.1 -4124.1 579.6 -4125.85 653.47 -4126.5 727.61 -4125.52 801.92 -4122.51 876.27 -4117.22 950.54 -4109.52 1024.62 -4099.43 1098.44 -4087.02 1171.93 -4072.44 1245.07 -4055.83 1317.82 -4037.32 1390.16 -4016.97 1462.06 -3994.76 1533.45 -3970.59 1604.22 -3944.3 1674.26 -3915.66 1743.37 -3884.46 1811.35 -3850.47 1878 -3813.57 1943.11 -3773.69 2006.51 -3730.93 2068.09 -3685.5 2127.82 -3637.77 2185.79 -3588.21 2242.16 -3537.4 2297.22 -3485.97 2351.32 -3434.54 2404.89 -3383.69 2458.39 -3333.88 2512.26 -3285.42 2566.85 -3238.48 2622.47 -3192.99 2679.23 -3148.72 2737.14 -3105.28 2796 -3062.11 2855.47 -3018.61 2915.04 -2974.13 2974.13 -2928.04 3032.07 -2879.81 3088.22 -2829.06 3141.99 -2775.53 3192.88 -2719.19 3240.6 -2660.16 3285.03 -2598.76 3326.26 -2535.42 3364.61 -2470.67 3400.59 -2405.1 3434.84 -2339.26 3468.1 -2273.67 3501.15 -2208.73 3534.7 -2144.69 3569.37 -2081.69 3605.59 -2019.69 3643.61 -1958.5 3683.4 -1897.84 3724.73 -1837.35 3767.12 -1776.6 3809.93 -1715.19 3852.38 -1652.76 3893.65 -1589 3932.92 -1523.73 3969.45 -1456.85 4002.66 -1388.38 4032.16 -1318.44 4057.75 -1247.22 4079.48 -1174.96 4097.58 -1101.94 4112.48 -1028.41 4124.71 -954.61 4134.86 -880.73 4143.53 -806.92 4151.23 -733.23 4158.37 -659.7 4165.21 -586.31 4171.82 -513.01 4178.12 -439.74 4183.86 -366.46 4188.71 -293.15 4192.27 -219.8 4194.12 -146.45 4193.92 -73.16 4191.44" />
<polygon  stroke-width="14px"  transform="scale(1.0867995841531788,1.0280905187359524) translate(10.13204833086217,-198.05041351816365)"  fill="rgba(0, 45, 151, 1)"  opacity="0.06495274971631496"  stroke="url(#bordergradient-radial)"  stroke-linejoin="round"  points="0 3643.02 63.55 3640.64 127.19 3642.15 191.14 3647.2 255.59 3655.1 320.64 3664.92 386.31 3675.49 452.52 3685.51 519.11 3693.65 585.8 3698.6 652.28 3699.25 718.17 3694.69 783.13 3684.32 846.8 3667.9 908.95 3645.58 969.4 3617.86 1028.14 3585.56 1085.28 3549.81 1141.08 3511.87 1195.89 3473.12 1250.2 3434.9 1304.52 3398.4 1359.39 3364.6 1415.26 3334.15 1472.52 3307.34 1531.39 3284.07 1591.88 3263.84 1653.83 3245.83 1716.84 3228.92 1780.34 3211.82 1843.58 3193.18 1905.73 3171.67 1965.92 3146.12 2023.32 3115.64 2077.24 3079.64 2127.2 3037.96 2172.96 2990.82 2214.6 2938.87 2252.52 2883.1 2287.45 2824.76 2320.37 2765.31 2352.52 2706.27 2385.25 2649.09 2419.94 2595.07 2457.9 2545.23 2500.24 2500.24 2547.8 2460.39 2601.05 2425.52 2660.02 2395.09 2724.3 2368.2 2793.03 2343.63 2864.98 2320.02 2938.59 2295.88 3012.09 2269.77 3083.62 2240.38 3151.37 2206.61 3213.7 2167.67 3269.28 2123.1 3317.18 2072.8 3356.91 2017.04 3388.5 1956.35 3412.47 1891.56 3429.78 1823.65 3441.77 1753.67 3450.03 1682.69 3456.31 1611.7 3462.34 1541.53 3469.72 1472.81 3479.79 1405.93 3493.54 1341.05 3511.53 1278.09 3533.84 1216.8 3560.1 1156.75 3589.54 1097.43 3621 1038.31 3653.13 978.85 3684.4 918.62 3713.32 857.29 3738.52 794.65 3758.85 730.65 3773.51 665.37 3782.09 599.02 3784.59 531.89 3781.43 464.3 3773.41 396.6 3761.62 329.1 3747.39 262.04 3732.12 195.59 3717.23 129.81 3703.99 64.65 3693.47 0 3686.41 -64.35 3683.22 -128.62 3683.92 -193.07 3688.13 -257.9 3695.16 -323.28 3704 -389.31 3713.46 -455.96 3722.21 -523.12 3728.92 -590.6 3732.34 -658.11 3731.37 -725.31 3725.17 -791.81 3713.19 -857.26 3695.17 -921.31 3671.21 -983.7 3641.71 -1044.24 3607.31 -1102.87 3568.91 -1159.61 3527.54 -1214.63 3484.28 -1268.17 3440.24 -1320.58 3396.46 -1372.26 3353.84 -1423.62 3313.11 -1475.09 3274.79 -1527.06 3239.17 -1579.85 3206.33 -1633.7 3176.11 -1688.77 3148.2 -1745.08 3122.12 -1802.56 3097.28 -1861.03 3073.05 -1920.26 3048.79 -1979.9 3023.85 -2039.61 2997.71 -2099.02 2969.89 -2157.75 2940.05 -2215.49 2907.98 -2271.96 2873.59 -2326.99 2836.91 -2380.45 2798.07 -2432.33 2757.29 -2482.67 2714.82 -2531.61 2670.97 -2579.33 2626.05 -2626.05 2580.32 -2672 2534.04 -2717.42 2487.36 -2762.49 2440.4 -2807.36 2393.19 -2852.1 2345.69 -2896.69 2297.8 -2941.04 2249.34 -2984.98 2200.15 -3028.25 2150.02 -3070.54 2098.74 -3111.51 2046.16 -3150.81 1992.14 -3188.08 1936.61 -3223.06 1879.57 -3255.51 1821.08 -3285.32 1761.28 -3312.48 1700.33 -3337.09 1638.49 -3359.4 1575.99 -3379.72 1513.1 -3398.48 1450.07 -3416.16 1387.13 -3433.26 1324.43 -3450.27 1262.12 -3467.63 1200.22 -3485.7 1138.74 -3504.69 1077.61 -3524.71 1016.71 -3545.7 955.9 -3567.45 895 -3589.63 833.85 -3611.78 772.3 -3633.39 710.24 -3653.88 647.6 -3672.73 584.35 -3689.45 520.52 -3703.67 456.16 -3715.13 391.38 -3723.75 326.3 -3729.61 261.03 -3732.93 195.7 -3734.09 130.38 -3733.55 65.14 -3731.84 0 -3729.49 -65.05 -3726.98 -130.07 -3724.71 -195.11 -3722.91 -260.25 -3721.68 -325.54 -3720.9 -391.02 -3720.31 -456.69 -3719.47 -522.5 -3717.81 -588.35 -3714.71 -654.09 -3709.52 -719.52 -3701.63 -784.45 -3690.57 -848.67 -3675.99 -911.99 -3657.77 -974.26 -3635.99 -1035.43 -3610.96 -1095.5 -3583.21 -1154.57 -3553.41 -1212.85 -3522.38 -1270.61 -3490.96 -1328.17 -3460.01 -1385.92 -3430.27 -1444.19 -3402.31 -1503.32 -3376.52 -1563.54 -3353.01 -1624.96 -3331.66 -1687.58 -3312.06 -1751.23 -3293.59 -1815.6 -3275.44 -1880.24 -3256.67 -1944.59 -3236.34 -2008.03 -3213.51 -2069.91 -3187.38 -2129.63 -3157.3 -2186.67 -3122.89 -2240.67 -3084.02 -2291.41 -3040.81 -2338.92 -2993.68 -2383.39 -2943.24 -2425.24 -2890.29 -2465.06 -2835.72 -2503.54 -2780.46 -2541.47 -2725.39 -2579.6 -2671.25 -2618.63 -2618.63 -2659.12 -2567.88 -2701.44 -2519.13 -2745.73 -2472.26 -2791.87 -2426.93 -2839.5 -2382.63 -2888.05 -2338.7 -2936.74 -2294.44 -2984.7 -2249.13 -3031.01 -2202.15 -3074.77 -2152.98 -3115.22 -2101.24 -3151.79 -2046.8 -3184.12 -1989.66 -3212.17 -1930.07 -3236.15 -1868.39 -3256.57 -1805.15 -3274.17 -1740.91 -3289.87 -1676.27 -3304.69 -1611.81 -3319.68 -1547.99 -3335.82 -1485.2 -3353.93 -1423.66 -3374.61 -1363.43 -3398.2 -1304.45 -3424.73 -1246.5 -3453.92 -1189.28 -3485.2 -1132.41 -3517.79 -1075.5 -3550.69 -1018.14 -3582.85 -960.02 -3613.19 -900.87 -3640.72 -840.53 -3664.58 -778.93 -3684.15 -716.13 -3699.09 -652.25 -3709.32 -587.5 -3715.05 -522.12 -3716.75 -456.36 -3715.09 -390.47 -3710.91 -324.66 -3705.08 -259.08 -3698.51 -193.83 -3692.01 -128.93 -3686.23 -64.34 -3681.66 0 -3678.54 64.21 -3676.9 128.4 -3676.53 192.68 -3677.03 257.12 -3677.87 321.77 -3678.4 386.62 -3677.98 451.6 -3675.97 516.62 -3671.84 581.56 -3665.2 646.27 -3655.81 710.62 -3643.64 774.48 -3628.79 837.77 -3611.57 900.47 -3592.39 962.58 -3571.73 1024.18 -3550.12 1085.38 -3528.05 1146.33 -3505.97 1207.2 -3484.2 1268.14 -3462.92 1329.29 -3442.18 1390.73 -3421.85 1452.49 -3401.67 1514.52 -3381.28 1576.72 -3360.22 1638.89 -3337.99 1700.79 -3314.11 1762.14 -3288.12 1822.64 -3259.67 1881.97 -3228.5 1939.88 -3194.49 1996.14 -3157.64 2050.6 -3118.11 2103.19 -3076.17 2153.96 -3032.17 2203 -2986.54 2250.52 -2939.74 2296.78 -2892.23 2342.08 -2844.44 2386.76 -2796.71 2431.14 -2749.34 2475.51 -2702.49 2520.11 -2656.23 2565.1 -2610.56 2610.56 -2565.33 2656.48 -2520.37 2702.76 -2475.43 2749.24 -2430.24 2795.68 -2384.53 2841.78 -2338.05 2887.25 -2290.58 2931.8 -2241.95 2975.17 -2192.08 3017.14 -2140.95 3057.59 -2088.58 3096.45 -2035.09 3133.76 -1980.63 3169.66 -1925.37 3204.35 -1869.52 3238.1 -1813.26 3271.22 -1756.78 3304.03 -1700.21 3336.85 -1643.63 3369.94 -1587.08 3403.5 -1530.52 3437.6 -1473.87 3472.23 -1417 3507.2 -1359.72 3542.2 -1301.85 3576.81 -1243.18 3610.45 -1183.51 3642.47 -1122.69 3672.17 -1060.62 3698.83 -997.24 3721.76 -932.58 3740.36 -866.72 3754.18 -799.83 3762.91 -732.13 3766.47 -663.88 3765.02 -595.36 3758.95 -526.87 3748.89 -458.68 3735.65 -391.01 3720.25 -324.04 3703.78 -257.85 3687.4 -192.45 3672.22 -127.78 3659.25 -63.7 3649.32" />
<polygon  stroke-width="14px"  transform="scale(0.9518864709283256,1.0809935183769943) translate(16.839519584708572,-256.0143714197673)"  fill="rgba(0, 45, 151, 1)"  opacity="0.08475353858384635"  stroke="url(#bordergradient-radial)"  stroke-linejoin="round"  points="0 3306.33 57.75 3308.71 115.56 3309.24 173.33 3307.24 230.92 3302.27 288.2 3294.13 345.05 3282.92 401.38 3268.98 457.16 3252.88 512.43 3235.33 567.27 3217.15 621.84 3199.1 676.33 3181.88 730.93 3166.02 785.84 3151.83 841.19 3139.35 897.04 3128.36 953.39 3118.4 1010.11 3108.8 1066.98 3098.73 1123.69 3087.31 1179.87 3073.67 1235.11 3057 1289.01 3036.71 1341.2 3012.39 1391.42 2983.92 1439.51 2951.43 1485.44 2915.34 1529.35 2876.29 1571.52 2835.1 1612.37 2792.7 1652.4 2750.06 1692.21 2708.11 1732.4 2667.66 1773.51 2629.34 1816.05 2593.58 1860.35 2560.56 1906.63 2530.19 1954.92 2502.18 2005.06 2476.04 2056.73 2451.12 2109.48 2426.68 2162.75 2401.98 2215.92 2376.29 2268.36 2348.95 2319.47 2319.47 2368.76 2287.48 2415.82 2252.79 2460.4 2215.35 2502.38 2175.29 2541.81 2132.83 2578.81 2088.28 2613.63 2041.99 2646.57 1994.34 2677.94 1945.64 2708.03 1896.19 2737.1 1846.19 2765.29 1795.8 2792.72 1745.09 2819.38 1694.05 2845.2 1642.68 2870.08 1590.91 2893.87 1538.7 2916.45 1486 2937.75 1432.83 2957.76 1379.23 2976.58 1325.26 2994.4 1271.05 3011.5 1216.73 3028.27 1162.44 3045.1 1108.33 3062.45 1054.48 3080.7 1000.98 3100.17 947.82 3121.08 894.96 3143.46 842.29 3167.19 789.67 3191.95 736.92 3217.26 683.85 3242.46 630.27 3266.82 576.03 3289.52 521.01 3309.75 465.16 3326.76 408.48 3339.93 351.04 3348.81 292.98 3353.14 234.47 3352.94 175.72 3348.43 116.93 3340.06 58.3 3328.48 0 3314.48 -57.85 3298.91 -115.2 3282.67 -172.04 3266.58 -228.42 3251.35 -284.46 3237.53 -340.28 3225.47 -396.04 3215.29 -451.88 3206.89 -507.92 3199.97 -564.24 3194.04 -620.86 3188.5 -677.74 3182.69 -734.78 3175.92 -791.85 3167.57 -848.75 3157.13 -905.29 3144.22 -961.28 3128.63 -1016.55 3110.36 -1070.98 3089.55 -1124.5 3066.52 -1177.13 3041.69 -1228.92 3015.56 -1280.03 2988.65 -1330.63 2961.45 -1380.95 2934.37 -1431.19 2907.69 -1481.54 2881.56 -1532.15 2855.96 -1583.08 2830.72 -1634.32 2805.54 -1685.74 2780 -1737.14 2753.61 -1788.21 2725.86 -1838.62 2696.28 -1887.95 2664.45 -1935.84 2630.09 -1981.91 2593.04 -2025.9 2553.31 -2067.63 2511.08 -2107.04 2466.66 -2144.24 2420.53 -2179.45 2373.22 -2213.06 2325.34 -2245.55 2277.49 -2277.49 2230.23 -2309.47 2184.04 -2342.1 2139.27 -2375.9 2096.12 -2411.31 2054.63 -2448.61 2014.67 -2487.91 1975.98 -2529.14 1938.14 -2572 1900.67 -2616.05 1863.02 -2660.67 1824.63 -2705.12 1784.98 -2748.62 1743.62 -2790.37 1700.21 -2829.62 1654.53 -2865.74 1606.52 -2898.24 1556.23 -2926.85 1503.87 -2951.51 1449.74 -2972.4 1394.21 -2989.9 1337.74 -3004.61 1280.76 -3017.27 1223.68 -3028.72 1166.88 -3039.83 1110.64 -3051.45 1055.13 -3064.32 1000.45 -3079.06 946.56 -3096.06 893.35 -3115.49 840.63 -3137.28 788.15 -3161.1 735.64 -3186.41 682.83 -3212.48 629.5 -3238.47 575.43 -3263.44 520.53 -3286.47 464.73 -3306.69 408.06 -3323.38 350.62 -3335.97 292.57 -3344.14 234.1 -3347.78 175.41 -3347.06 116.72 -3342.34 58.2 -3334.19 0 -3323.33 -57.79 -3310.57 -115.12 -3296.74 -172.04 -3282.64 -228.59 -3268.96 -284.89 -3256.26 -341.05 -3244.9 -397.21 -3235.06 -453.48 -3226.67 -509.92 -3219.5 -566.56 -3213.14 -623.39 -3207.07 -680.33 -3200.68 -737.25 -3193.36 -794 -3184.55 -850.41 -3173.76 -906.3 -3160.65 -961.54 -3145.04 -1016 -3126.92 -1069.64 -3106.45 -1122.46 -3083.95 -1174.56 -3059.82 -1226.05 -3034.58 -1277.13 -3008.74 -1328.02 -2982.78 -1378.93 -2957.12 -1430.05 -2932.03 -1481.53 -2907.66 -1533.44 -2883.98 -1585.76 -2860.79 -1638.38 -2837.76 -1691.07 -2814.41 -1743.51 -2790.2 -1795.34 -2764.58 -1846.12 -2736.99 -1895.43 -2706.96 -1942.87 -2674.13 -1988.11 -2638.32 -2030.94 -2599.48 -2071.25 -2557.78 -2109.11 -2513.53 -2144.72 -2467.21 -2178.44 -2419.4 -2210.75 -2370.74 -2242.22 -2321.88 -2273.46 -2273.46 -2305.1 -2226.01 -2337.71 -2179.95 -2371.76 -2135.54 -2407.6 -2092.89 -2445.39 -2051.92 -2485.13 -2012.42 -2526.65 -1974.03 -2569.56 -1936.31 -2613.39 -1898.74 -2657.52 -1860.82 -2701.3 -1822.05 -2744.06 -1782.01 -2785.17 -1740.37 -2824.11 -1696.9 -2860.46 -1651.49 -2893.95 -1604.14 -2924.48 -1554.98 -2952.1 -1504.17 -2976.98 -1451.97 -2999.4 -1398.64 -3019.71 -1344.46 -3038.29 -1289.68 -3055.49 -1234.5 -3071.63 -1179.09 -3086.94 -1123.55 -3101.56 -1067.95 -3115.52 -1012.29 -3128.8 -956.57 -3141.29 -900.75 -3152.85 -844.8 -3163.34 -788.71 -3172.67 -732.47 -3180.82 -676.1 -3187.85 -619.66 -3193.95 -563.18 -3199.4 -506.73 -3204.57 -450.37 -3209.92 -394.13 -3215.9 -338 -3222.95 -281.97 -3231.44 -225.96 -3241.58 -169.88 -3253.44 -113.61 -3266.88 -57.02 -3281.56 0 -3296.93 57.55 -3312.25 115.67 -3326.66 174.34 -3339.22 233.5 -3348.98 293 -3355.07 352.63 -3356.74 412.16 -3353.47 471.3 -3344.97 529.79 -3331.25 587.39 -3312.59 643.9 -3289.55 699.22 -3262.94 753.31 -3233.71 806.25 -3202.93 858.22 -3171.67 909.46 -3140.95 960.28 -3111.62 1011.03 -3084.32 1062.02 -3059.43 1113.54 -3037.06 1165.82 -3017.02 1218.96 -2998.86 1272.94 -2981.92 1327.64 -2965.42 1382.8 -2948.47 1438.06 -2930.22 1493.02 -2909.91 1547.22 -2886.91 1600.24 -2860.83 1651.7 -2831.5 1701.34 -2798.99 1749 -2763.6 1794.7 -2725.81 1838.58 -2686.25 1880.93 -2645.59 1922.13 -2604.51 1962.64 -2563.6 2002.91 -2523.34 2043.36 -2483.98 2084.31 -2445.6 2125.93 -2408.07 2168.24 -2371.04 2211.03 -2334.04 2253.95 -2296.46 2296.46 -2257.7 2337.91 -2217.16 2377.61 -2174.36 2414.87 -2128.98 2449.11 -2080.88 2479.9 -2030.17 2507.06 -1977.17 2530.66 -1922.38 2551.09 -1866.5 2569.02 -1810.3 2585.38 -1754.61 2601.32 -1700.21 2618.09 -1647.78 2637 -1597.83 2659.24 -1550.69 2685.87 -1506.41 2717.63 -1464.82 2754.92 -1425.52 2797.75 -1387.93 2845.68 -1351.3 2897.87 -1314.81 2953.12 -1277.64 3009.92 -1238.99 3066.6 -1198.19 3121.39 -1154.73 3172.6 -1108.29 3218.7 -1058.73 3258.45 -1006.16 3290.99 -950.81 3315.87 -893.1 3333.1 -833.53 3343.1 -772.65 3346.71 -711.02 3345.06 -649.13 3339.49 -587.42 3331.42 -526.2 3322.27 -465.66 3313.31 -405.88 3305.59 -346.83 3299.84 -288.4 3296.47 -230.44 3295.51 -172.77 3296.68 -115.22 3299.41 -57.65 3302.92" />
<polygon  stroke-width="14px"  transform="scale(1.0526742732163747,1.0095423701805593) translate(1.1075136941453145,-295.8984290522025)"  fill="rgba(0, 45, 151, 1)"  opacity="0.10628137716842188"  stroke="url(#bordergradient-radial)"  stroke-linejoin="round"  points="0 2852.5 49.77 2851.29 99.5 2849.25 149.17 2846.4 198.79 2842.79 248.33 2838.47 297.81 2833.49 347.22 2827.89 396.57 2821.72 445.86 2815.02 495.09 2807.82 544.28 2800.1 593.43 2791.86 642.52 2783.07 691.55 2773.66 740.5 2763.59 789.35 2752.78 838.05 2741.15 886.59 2728.64 934.92 2715.2 983 2700.77 1030.8 2685.33 1078.3 2668.89 1125.47 2651.44 1172.29 2633.01 1218.77 2613.66 1264.89 2593.41 1310.66 2572.31 1356.07 2550.41 1401.14 2527.72 1445.83 2504.26 1490.15 2480.02 1534.05 2454.99 1577.49 2429.12 1620.42 2402.37 1662.77 2374.68 1704.47 2346.01 1745.46 2316.3 1785.64 2285.52 1824.97 2253.65 1863.38 2220.69 1900.84 2186.67 1937.33 2151.62 1972.83 2115.6 2007.36 2078.68 2040.96 2040.96 2073.65 2002.5 2105.49 1963.4 2136.53 1923.74 2166.81 1883.58 2196.39 1842.99 2225.31 1802.02 2253.6 1760.7 2281.29 1719.08 2308.42 1677.17 2335.02 1635 2361.11 1592.59 2386.74 1549.97 2411.96 1507.16 2436.82 1464.19 2461.4 1421.09 2485.77 1377.88 2509.98 1334.58 2534.1 1291.19 2558.18 1247.71 2582.21 1204.1 2606.18 1160.35 2630.03 1116.38 2653.65 1072.14 2676.89 1027.56 2699.56 982.56 2721.44 937.07 2742.3 891.03 2761.9 844.4 2780.02 797.16 2796.48 749.31 2811.13 700.89 2823.9 651.95 2834.77 602.55 2843.8 552.78 2851.1 502.73 2856.86 452.48 2861.28 402.13 2864.61 351.73 2867.06 301.34 2868.84 250.99 2870.11 200.7 2870.96 150.46 2871.41 100.27 2871.4 50.12 2870.81 0 2869.46 -50.09 2867.13 -100.12 2863.61 -150.08 2858.66 -199.9 2852.14 -249.53 2843.95 -298.91 2834.09 -347.98 2822.64 -396.7 2809.82 -445.03 2795.9 -492.99 2781.26 -540.62 2766.29 -587.99 2751.41 -635.21 2737.01 -682.41 2723.39 -729.73 2710.77 -777.3 2699.22 -825.23 2688.65 -873.6 2678.84 -922.4 2669.42 -971.59 2659.88 -1021.03 2649.64 -1070.52 2638.07 -1119.79 2624.55 -1168.52 2608.53 -1216.38 2589.56 -1263.01 2567.36 -1308.13 2541.8 -1351.5 2512.99 -1392.97 2481.2 -1432.52 2446.91 -1470.25 2410.72 -1506.38 2373.34 -1541.26 2335.52 -1575.33 2298.01 -1609.08 2261.45 -1643.04 2226.38 -1677.7 2193.15 -1713.48 2161.93 -1750.7 2132.66 -1789.52 2105.09 -1829.93 2078.78 -1871.74 2053.15 -1914.59 2027.54 -1957.97 2001.25 -2001.25 1973.63 -2043.75 1944.08 -2084.77 1912.16 -2123.67 1877.59 -2159.92 1840.27 -2193.15 1800.3 -2223.18 1757.93 -2250.05 1713.59 -2274.01 1667.79 -2295.51 1621.08 -2315.14 1574.04 -2333.62 1527.19 -2351.67 1480.94 -2370 1435.6 -2389.23 1391.3 -2409.8 1348.04 -2431.93 1305.69 -2455.64 1263.97 -2480.68 1222.55 -2506.59 1181.02 -2532.71 1139.01 -2558.26 1096.17 -2582.43 1052.24 -2604.39 1007.06 -2623.48 960.58 -2639.17 912.89 -2651.22 864.17 -2659.65 814.71 -2664.79 764.82 -2667.25 714.86 -2667.91 665.16 -2667.81 615.98 -2668.11 567.52 -2669.99 519.88 -2674.53 473.02 -2682.61 426.83 -2694.87 381.09 -2711.6 335.54 -2732.74 289.86 -2757.84 243.75 -2786.12 196.95 -2816.48 149.24 -2847.62 100.51 -2878.11 50.73 -2906.5 0 -2931.44 -51.52 -2951.75 -103.59 -2966.55 -155.93 -2975.28 -208.23 -2977.77 -260.21 -2974.21 -311.65 -2965.14 -362.39 -2951.39 -412.35 -2934.02 -461.56 -2914.19 -510.13 -2893.11 -558.24 -2871.88 -606.1 -2851.46 -653.95 -2832.57 -702.02 -2815.63 -750.47 -2800.78 -799.4 -2787.83 -848.81 -2776.33 -898.61 -2765.64 -948.61 -2754.96 -998.53 -2743.45 -1048.05 -2730.27 -1096.82 -2714.72 -1144.5 -2696.27 -1190.81 -2674.6 -1235.55 -2649.66 -1278.65 -2621.62 -1320.14 -2590.93 -1360.21 -2558.18 -1399.14 -2524.12 -1437.34 -2489.54 -1475.26 -2455.24 -1513.38 -2421.91 -1552.15 -2390.1 -1591.95 -2360.17 -1633.06 -2332.25 -1675.58 -2306.24 -1719.49 -2281.84 -1764.56 -2258.54 -1810.43 -2235.69 -1856.58 -2212.58 -1902.42 -2188.48 -1947.29 -2162.68 -1990.56 -2134.61 -2031.64 -2103.82 -2070.07 -2070.07 -2105.53 -2033.29 -2137.9 -1993.62 -2167.21 -1951.37 -2193.74 -1906.99 -2217.91 -1861.05 -2240.26 -1814.13 -2261.45 -1766.84 -2282.17 -1719.74 -2303.08 -1673.29 -2324.77 -1627.82 -2347.71 -1583.55 -2372.21 -1540.53 -2398.4 -1498.69 -2426.22 -1457.82 -2455.43 -1417.64 -2485.64 -1377.81 -2516.34 -1337.96 -2546.95 -1297.73 -2576.84 -1256.81 -2605.43 -1214.93 -2632.2 -1171.93 -2656.75 -1127.73 -2678.8 -1082.31 -2698.22 -1035.75 -2715.02 -988.19 -2729.36 -939.79 -2741.51 -890.77 -2751.81 -841.31 -2760.65 -791.6 -2768.42 -741.8 -2775.48 -692.01 -2782.13 -642.31 -2788.59 -592.73 -2794.96 -543.29 -2801.27 -493.94 -2807.45 -444.66 -2813.34 -395.39 -2818.75 -346.1 -2823.45 -296.76 -2827.22 -247.35 -2829.87 -197.88 -2831.26 -148.38 -2831.31 -98.87 -2830.02 -49.4 -2827.47 0 -2823.81 49.29 -2819.22 98.45 -2813.94 147.47 -2808.21 196.37 -2802.25 245.17 -2796.26 293.9 -2790.39 342.62 -2784.72 391.37 -2779.26 440.19 -2773.96 489.12 -2768.71 538.18 -2763.32 587.36 -2757.6 636.64 -2751.3 685.98 -2744.21 735.31 -2736.1 784.56 -2726.77 833.66 -2716.06 882.5 -2703.87 931.02 -2690.12 979.12 -2674.79 1026.76 -2657.89 1073.86 -2639.47 1120.39 -2619.58 1166.31 -2598.32 1211.62 -2575.77 1256.28 -2552 1300.31 -2527.1 1343.68 -2501.13 1386.4 -2474.15 1428.45 -2446.23 1469.84 -2417.39 1510.55 -2387.7 1550.59 -2357.19 1589.95 -2325.93 1628.64 -2293.99 1666.68 -2261.42 1704.1 -2228.3 1740.94 -2194.71 1777.24 -2160.73 1813.07 -2126.42 1848.47 -2091.85 1883.51 -2057.05 1918.23 -2022.06 1952.68 -1986.88 1986.88 -1951.5 2020.84 -1915.89 2054.54 -1880.01 2087.96 -1843.8 2121.05 -1807.22 2153.76 -1770.2 2186.02 -1732.7 2217.76 -1694.69 2248.92 -1656.12 2279.46 -1617 2309.32 -1577.33 2338.49 -1537.12 2366.96 -1496.39 2394.73 -1455.18 2421.83 -1413.51 2448.27 -1371.41 2474.09 -1328.91 2499.32 -1286.03 2523.97 -1242.77 2548.05 -1199.13 2571.54 -1155.1 2594.41 -1110.69 2616.61 -1065.86 2638.09 -1020.61 2658.77 -974.92 2678.56 -928.79 2697.4 -882.22 2715.2 -835.23 2731.9 -787.82 2747.46 -740.04 2761.86 -691.9 2775.07 -643.46 2787.12 -594.74 2798.01 -545.78 2807.8 -496.63 2816.53 -447.31 2824.23 -397.87 2830.96 -348.31 2836.75 -298.67 2841.63 -248.96 2845.62 -199.2 2848.74 -149.41 2850.98 -99.61 2852.35 -49.8 2852.86" />
<polygon  stroke-width="14px"  transform="scale(1.0643449449086768,1.047333572362683) translate(-18.348504908993775,-334.4252995364218)"  fill="rgba(0, 45, 151, 1)"  opacity="0.1294074074074074"  stroke="url(#bordergradient-radial)"  stroke-linejoin="round"  points="0 2471.31 43.19 2474.57 86.47 2476.04 129.73 2475.49 172.92 2472.8 215.92 2467.96 258.67 2461.08 301.11 2452.33 343.2 2441.98 384.93 2430.34 426.31 2417.74 467.39 2404.53 508.23 2391.02 548.88 2377.47 589.44 2364.1 629.96 2351.04 670.51 2338.35 711.14 2326.02 751.86 2313.98 792.66 2302.06 833.52 2290.09 874.38 2277.84 915.14 2265.06 955.71 2251.52 995.97 2236.99 1035.79 2221.27 1075.06 2204.2 1113.66 2185.68 1151.5 2165.65 1188.5 2144.12 1224.65 2121.15 1259.93 2096.87 1294.38 2071.45 1328.09 2045.08 1361.17 2018.02 1393.78 1990.52 1426.08 1962.82 1458.26 1935.17 1490.52 1907.78 1523.04 1880.79 1555.97 1854.33 1589.43 1828.43 1623.48 1803.06 1658.12 1778.12 1693.3 1753.46 1728.86 1728.86 1764.6 1704.06 1800.27 1678.78 1835.55 1652.74 1870.11 1625.66 1903.62 1597.33 1935.75 1567.54 1966.23 1536.19 1994.86 1503.23 2021.51 1468.71 2046.16 1432.74 2068.89 1395.48 2089.87 1357.18 2109.38 1318.09 2127.76 1278.49 2145.39 1238.64 2162.67 1198.79 2179.99 1159.12 2197.66 1119.76 2215.94 1080.79 2234.96 1042.18 2254.74 1003.88 2275.17 965.75 2295.99 927.64 2316.87 889.36 2337.36 850.73 2356.99 811.58 2375.25 771.76 2391.68 731.21 2405.89 689.88 2417.6 647.8 2426.66 605.04 2433.08 561.72 2437.01 518 2438.77 474.05 2438.8 430.03 2437.63 386.08 2435.85 342.34 2434.04 298.86 2432.75 255.69 2432.44 212.81 2433.45 170.16 2435.94 127.66 2439.9 85.2 2445.18 42.68 2451.42 0 2458.15 -42.91 2464.78 -86.07 2470.68 -129.48 2475.22 -173.08 2477.8 -216.78 2477.9 -260.44 2475.16 -303.91 2469.35 -347.04 2460.44 -389.69 2448.54 -431.74 2433.94 -473.11 2417.08 -513.77 2398.46 -553.73 2378.69 -593.07 2358.35 -631.92 2338.01 -670.41 2318.17 -708.74 2299.23 -747.07 2281.46 -785.57 2264.99 -824.39 2249.81 -863.62 2235.8 -903.32 2222.71 -943.48 2210.22 -984.05 2197.96 -1024.93 2185.55 -1065.96 2172.6 -1107 2158.78 -1147.85 2143.81 -1188.33 2127.48 -1228.3 2109.67 -1267.62 2090.31 -1306.17 2069.43 -1343.91 2047.09 -1380.78 2023.4 -1416.8 1998.5 -1451.99 1972.51 -1486.39 1945.58 -1520.05 1917.81 -1553.01 1889.32 -1585.33 1860.19 -1617.03 1830.46 -1648.16 1800.2 -1678.72 1769.46 -1708.74 1738.27 -1738.27 1706.69 -1767.33 1674.79 -1795.99 1642.63 -1824.33 1610.3 -1852.44 1577.88 -1880.44 1545.44 -1908.45 1513.02 -1936.58 1480.67 -1964.91 1448.36 -1993.5 1416.05 -2022.34 1383.66 -2051.36 1351.04 -2080.42 1318.04 -2109.31 1284.49 -2137.74 1250.18 -2165.38 1214.96 -2191.84 1178.66 -2216.75 1141.19 -2239.72 1102.49 -2260.44 1062.57 -2278.68 1021.49 -2294.3 979.38 -2307.28 936.44 -2317.77 892.87 -2326.01 848.92 -2332.38 804.82 -2337.38 760.81 -2341.55 717.08 -2345.46 673.76 -2349.69 630.95 -2354.73 588.66 -2360.98 546.86 -2368.73 505.48 -2378.07 464.37 -2388.96 423.39 -2401.15 382.38 -2414.26 341.2 -2427.8 299.74 -2441.15 257.89 -2453.68 215.64 -2464.76 172.99 -2473.81 129.99 -2480.38 86.75 -2484.11 43.37 -2484.86 0 -2482.63 -43.25 -2477.61 -86.26 -2470.13 -128.96 -2460.66 -171.3 -2449.77 -213.3 -2438.05 -254.99 -2426.1 -296.46 -2414.44 -337.79 -2403.53 -379.12 -2393.67 -420.54 -2385.02 -462.16 -2377.58 -504.02 -2371.21 -546.14 -2365.61 -588.51 -2360.37 -631.03 -2355.04 -673.6 -2349.11 -716.05 -2342.1 -758.22 -2333.56 -799.93 -2323.15 -841.01 -2310.65 -881.33 -2295.96 -920.81 -2279.09 -959.41 -2260.23 -997.15 -2239.63 -1034.11 -2217.66 -1070.44 -2194.73 -1106.32 -2171.27 -1141.95 -2147.69 -1177.56 -2124.37 -1213.36 -2101.6 -1249.53 -2079.57 -1286.22 -2058.38 -1323.5 -2038.02 -1361.41 -2018.37 -1399.87 -1999.23 -1438.78 -1980.32 -1477.96 -1961.31 -1517.16 -1941.88 -1556.14 -1921.67 -1594.61 -1900.38 -1632.3 -1877.75 -1668.95 -1853.56 -1704.36 -1827.7 -1738.34 -1800.11 -1770.8 -1770.8 -1801.68 -1739.87 -1831.02 -1707.45 -1858.88 -1673.74 -1885.41 -1638.96 -1910.77 -1603.32 -1935.17 -1567.07 -1958.84 -1530.41 -1981.99 -1493.54 -2004.84 -1456.6 -2027.56 -1419.71 -2050.3 -1382.94 -2073.16 -1346.33 -2096.19 -1309.85 -2119.38 -1273.45 -2142.67 -1237.07 -2165.93 -1200.59 -2189 -1163.91 -2211.68 -1126.91 -2233.75 -1089.47 -2254.94 -1051.5 -2275.03 -1012.91 -2293.79 -973.66 -2311.02 -933.71 -2326.58 -893.09 -2340.38 -851.83 -2352.41 -810 -2362.71 -767.69 -2371.42 -725.02 -2378.75 -682.1 -2384.95 -639.04 -2390.32 -595.97 -2395.2 -552.98 -2399.91 -510.12 -2404.76 -467.44 -2409.98 -424.94 -2415.77 -382.62 -2422.2 -340.42 -2429.26 -298.28 -2436.82 -256.12 -2444.65 -213.88 -2452.43 -171.49 -2459.78 -128.91 -2466.26 -86.12 -2471.43 -43.14 -2474.91 0 -2476.35 43.22 -2475.51 86.45 -2472.28 129.57 -2466.69 172.49 -2458.92 215.13 -2449.27 257.43 -2438.16 299.37 -2426.11 340.97 -2413.65 382.29 -2401.34 423.42 -2389.66 464.5 -2378.99 505.67 -2369.57 547.06 -2361.49 588.79 -2354.62 630.92 -2348.65 673.46 -2343.11 716.36 -2337.36 759.46 -2330.71 802.53 -2322.39 845.28 -2311.66 887.36 -2297.9 928.41 -2280.61 968.06 -2259.48 1005.99 -2234.47 1041.95 -2205.76 1075.82 -2173.79 1107.6 -2139.26 1137.46 -2103.01 1165.72 -2066.06 1192.84 -2029.45 1219.42 -1994.25 1246.15 -1961.42 1273.76 -1931.76 1302.99 -1905.85 1334.49 -1884 1368.8 -1866.23 1406.31 -1852.28 1447.16 -1841.58 1491.28 -1833.34 1538.36 -1826.59 1587.83 -1820.21 1638.93 -1813.08 1690.72 -1804.09 1742.19 -1792.25 1792.25 -1776.74 1839.87 -1756.97 1884.11 -1732.59 1924.24 -1703.54 1959.7 -1670 1990.23 -1632.39 2015.83 -1591.31 2036.78 -1547.51 2053.62 -1501.82 2067.08 -1455.08 2078.06 -1408.06 2087.54 -1361.48 2096.5 -1315.89 2105.87 -1271.69 2116.44 -1229.1 2128.86 -1188.16 2143.5 -1148.78 2160.54 -1110.71 2179.9 -1073.63 2201.26 -1037.14 2224.15 -1000.84 2247.92 -964.35 2271.87 -927.35 2295.26 -889.56 2317.39 -850.84 2337.67 -811.11 2355.62 -770.37 2370.97 -728.74 2383.59 -686.34 2393.56 -643.38 2401.12 -600.05 2406.66 -556.54 2410.65 -513.03 2413.62 -469.64 2416.09 -426.46 2418.57 -383.52 2421.46 -340.82 2425.04 -298.3 2429.49 -255.91 2434.81 -213.55 2440.88 -171.14 2447.46 -128.62 2454.21 -85.93 2460.72 -43.05 2466.57" />
<polygon  stroke-width="14px"  transform="scale(0.9431261473545396,1.068425923065873) translate(6.997600874262094,-384.5470132972572)"  fill="rgba(0, 45, 151, 1)"  opacity="0.1540279579551077"  stroke="url(#bordergradient-radial)"  stroke-linejoin="round"  points="0 2125.34 74.15 2123.5 147.88 2114.83 220.64 2099.25 292.02 2077.8 361.94 2052.67 430.84 2026.93 499.58 2003.71 569.27 1985.26 640.76 1972.07 714.24 1962.36 788.79 1952.33 862.4 1936.97 932.28 1911.46 995.68 1872.6 1050.77 1819.99 1097.55 1756.45 1138.23 1687.49 1177.04 1620.06 1219.38 1560.74 1270.38 1513.98 1333.42 1480.91 1408.96 1459.02 1494.03 1442.77 1582.72 1425.09 1667.46 1399.17 1740.87 1360.12 1797.61 1306.04 1835.73 1238.21 1857.13 1160.47 1867 1077.91 1872.32 995.53 1880.06 916.97 1895.38 843.88 1920.41 775.9 1954.03 711.21 1992.41 647.37 2030.38 582.2 2062.89 514.34 2086.35 443.47 2099.39 370.18 2102.87 295.54 2099.3 220.65 2091.9 146.28 2083.62 72.76 2076.44 0 2071.16 -72.33 2067.5 -144.57 2064.55 -216.99 2061.23 -289.69 2056.61 -362.64 2050.02 -435.75 2040.9 -508.85 2028.62 -581.7 2012.34 -653.85 1991.04 -724.68 1963.8 -793.42 1930.12 -859.35 1890.3 -921.96 1845.54 -981.29 1797.8 -1037.96 1749.41 -1093.15 1702.49 -1148.35 1658.42 -1204.91 1617.48 -1263.71 1578.84 -1324.8 1540.87 -1387.4 1501.64 -1450.11 1459.44 -1511.3 1413.23 -1569.55 1362.72 -1624.03 1308.3 -1674.55 1250.69 -1721.42 1190.57 -1765.1 1128.37 -1805.76 1064.13 -1843.12 997.7 -1876.39 928.97 -1904.67 858.12 -1927.37 785.72 -1944.72 712.66 -1958.02 639.92 -1969.47 568.24 -1981.7 497.9 -1996.96 428.6 -2016.39 359.62 -2039.48 290.1 -2064.14 219.37 -2087.16 147.21 -2105.15 73.88 -2115.56 0 -2117.49 -73.75 -2111.96 -146.96 -2101.58 -219.63 -2089.68 -292.21 -2079.17 -365.27 -2071.57 -439.22 -2066.39 -513.94 -2061.29 -588.62 -2052.76 -661.94 -2037.25 -732.43 -2012.33 -798.95 -1977.46 -861.16 -1934.19 -919.73 -1885.73 -976.19 -1835.95 -1032.46 -1788.27 -1090.24 -1744.75 -1150.45 -1705.61 -1212.89 -1669.39 -1276.34 -1633.64 -1339.03 -1595.79 -1399.25 -1554.02 -1456.01 -1507.74 -1509.36 -1457.57 -1560.32 -1404.92 -1610.4 -1351.28 -1660.84 -1297.59 -1711.96 -1243.82 -1762.77 -1189 -1811.03 -1131.66 -1853.95 -1070.38 -1889.03 -1004.41 -1914.97 -933.99 -1932.33 -860.33 -1943.46 -785.21 -1952 -710.47 -1961.8 -637.43 -1975.8 -566.55 -1995.12 -497.44 -2018.74 -429.1 -2043.81 -360.38 -2066.61 -290.44 -2083.69 -219 -2092.98 -146.36 -2094.38 -73.14 -2089.72 0 -2082.09 72.71 -2074.75 145.08 -2070.07 217.57 -2068.7 290.74 -2069.41 364.89 -2069.45 439.88 -2065.46 514.98 -2054.44 589.1 -2034.67 661.1 -2006.04 730.14 -1970 795.93 -1928.95 858.82 -1885.52 919.63 -1841.79 979.29 -1798.88 1038.58 -1756.92 1097.84 -1715.31 1156.99 -1673.24 1215.68 -1630.12 1273.59 -1585.84 1330.67 -1540.73 1387.28 -1495.33 1444.02 -1449.95 1501.47 -1404.42 1559.76 -1357.93 1618.31 -1309.22 1675.72 -1256.92 1730 -1199.98 1779.04 -1138 1821.18 -1071.38 1855.69 -1001.22 1883.02 -928.99 1904.72 -856.17 1922.98 -783.86 1940.11 -712.62 1957.92 -642.49 1977.37 -573.06 1998.51 -503.81 2020.65 -434.2 2042.74 -363.88 2063.69 -292.7 2082.64 -220.61 2098.96 -147.69 2112.05 -74.07 2121.16" />
<polygon  stroke-width="14px"  transform="scale(0.997222977653599,0.9600264304347006) translate(13.717945594399998,-433.81803321226715)"  fill="rgba(0, 45, 151, 1)"  opacity="0.18005726487498325"  stroke="url(#bordergradient-radial)"  stroke-linejoin="round"  points="0 1715.72 59.95 1716.71 120.27 1719.99 180.93 1721.44 241.24 1716.54 300.15 1702.26 356.75 1678.4 410.91 1648.05 463.6 1616.77 516.89 1590.82 573.26 1575.02 634.73 1571.01 701.93 1576.57 773.6 1586.11 846.69 1592.4 917.25 1588.72 981.55 1570.81 1037.4 1538.01 1084.8 1493.1 1125.96 1441.16 1164.45 1387.73 1203.88 1337.04 1246.61 1290.9 1292.85 1248.49 1340.69 1207.16 1386.86 1163.71 1428.06 1115.73 1462.31 1062.43 1489.69 1004.81 1512.37 945.03 1533.73 885.5 1557.02 827.88 1584.05 772.59 1614.41 718.78 1645.58 664.86 1673.89 609.24 1695.88 551.02 1709.69 490.24 1715.78 427.79 1716.81 364.92 1716.62 302.69 1718.81 241.56 1725.32 181.34 1735.69 121.37 1747.21 61.01 1755.88 0 1757.94 -61.39 1751.26 -122.46 1736.16 -182.48 1715.41 -241.09 1693.22 -298.56 1673.88 -355.79 1660.28 -413.95 1653 -473.99 1650.2 -536.18 1648.26 -599.92 1643.06 -663.84 1631.21 -726.26 1611.05 -785.76 1582.88 -841.63 1548.64 -894.11 1511.02 -944.19 1472.49 -993.21 1434.61 -1042.31 1397.7 -1092 1361.03 -1142.04 1323.36 -1191.56 1283.51 -1239.47 1240.8 -1284.89 1195.19 -1327.39 1147.12 -1367.08 1097.21 -1404.36 1045.94 -1439.61 993.48 -1472.9 939.74 -1503.9 884.53 -1532.05 827.82 -1556.9 769.85 -1578.42 711.14 -1597.25 652.33 -1614.58 593.94 -1631.83 536.16 -1650.13 478.83 -1669.88 421.49 -1690.52 363.61 -1710.64 304.77 -1728.42 244.85 -1742.21 184.04 -1751.05 122.72 -1754.94 61.28 -1754.77 0 -1751.94 -61.04 -1747.83 -121.91 -1743.33 -182.73 -1738.57 -243.56 -1733.02 -304.3 -1725.79 -364.76 -1716.04 -424.69 -1703.35 -483.98 -1687.83 -542.63 -1670.03 -600.78 -1650.63 -658.61 -1630.11 -716.17 -1608.53 -773.31 -1585.53 -829.72 -1560.48 -884.97 -1532.81 -938.74 -1502.29 -990.91 -1469.08 -1041.65 -1433.7 -1091.28 -1396.77 -1140.1 -1358.72 -1188.15 -1319.58 -1235.12 -1279.01 -1280.35 -1236.42 -1323.1 -1191.32 -1362.81 -1143.53 -1399.45 -1093.37 -1433.6 -1041.57 -1466.31 -989.04 -1498.76 -936.53 -1531.8 -884.39 -1565.57 -832.43 -1599.3 -780.03 -1631.54 -726.41 -1660.54 -670.9 -1684.83 -613.23 -1703.65 -553.55 -1717.2 -492.4 -1726.47 -430.46 -1732.86 -368.33 -1737.67 -306.4 -1741.65 -244.77 -1744.9 -183.4 -1747 -122.16 -1747.38 -61.02 -1745.74 0 -1742.26 60.84 -1737.54 121.5 -1732.29 182.07 -1726.84 242.69 -1720.84 303.43 -1713.16 364.14 -1702.25 424.42 -1686.7 483.65 -1665.96 541.3 -1640.71 597.17 -1612.9 651.65 -1585.17 705.76 -1560.01 760.87 -1538.79 818.19 -1521.16 878.24 -1504.97 940.41 -1486.89 1002.92 -1463.36 1063.2 -1431.85 1118.68 -1391.57 1167.67 -1343.8 1209.96 -1291.39 1247.08 -1237.77 1281.75 -1185.85 1317.02 -1137.09 1355.13 -1091.15 1396.61 -1046.28 1440.07 -1000.02 1482.59 -950.28 1520.77 -896.07 1552.04 -837.79 1575.65 -776.96 1593 -715.56 1607.17 -655.24 1621.78 -596.76 1639.58 -539.81 1661.36 -483.32 1685.53 -426.04 1708.74 -367.1 1727.07 -306.39 1737.6 -244.48 1739.54 -182.31 1734.61 -120.72 1726.45 -60.03 1719.16" />
<polygon  stroke-width="14px"  transform="scale(1.0894300038978655,1.1127731864591879) translate(-0.7511601346758354,-511.3019052838083)"  fill="rgba(0, 45, 151, 1)"  opacity="0.2074228383700447"  stroke="url(#bordergradient-radial)"  stroke-linejoin="round"  points="0 1474.33 51.17 1465.28 101.67 1453.98 151.61 1442.48 201.25 1431.97 250.86 1422.69 300.56 1414.02 350.29 1404.92 399.82 1394.32 448.86 1381.45 497.14 1365.89 544.46 1347.58 590.67 1326.67 635.71 1303.4 679.56 1278.07 722.3 1251.07 764.12 1222.85 805.35 1193.99 846.41 1164.98 887.64 1136.12 929.16 1107.33 970.73 1078.1 1011.63 1047.57 1050.87 1014.81 1087.41 979.11 1120.56 940.26 1150.24 898.66 1177.1 855.22 1202.4 811.03 1227.53 767.04 1253.59 723.76 1280.92 681.08 1308.91 638.4 1336.19 594.91 1361.06 549.9 1382.09 503.04 1398.68 454.46 1411.2 404.65 1420.86 354.26 1429.2 303.79 1437.43 253.46 1445.88 203.2 1453.8 152.8 1459.67 102.07 1461.73 51.04 1458.83 0 1450.97 -50.67 1439.48 -100.66 1426.76 -149.96 1415.47 -198.93 1407.66 -248.21 1404 -298.43 1403.47 -349.93 1403.63 -402.48 1401.32 -455.32 1393.67 -507.26 1378.96 -557.14 1357.05 -604.2 1329.31 -648.35 1298.09 -690.21 1265.86 -730.84 1234.43 -771.36 1204.49 -812.44 1175.56 -854.09 1146.38 -895.65 1115.55 -936.06 1082.12 -974.35 1045.92 -1010.04 1007.58 -1043.38 968.19 -1075.28 928.82 -1106.93 890.11 -1139.29 851.99 -1172.67 813.8 -1206.5 774.53 -1239.51 733.29 -1270.1 689.58 -1296.91 643.49 -1319.34 595.59 -1337.72 546.73 -1353.21 497.68 -1367.37 448.93 -1381.66 400.56 -1396.9 352.33 -1413.1 303.84 -1429.46 254.74 -1444.7 204.84 -1457.52 154.18 -1466.94 102.97 -1472.54 51.49 -1474.48 0 -1473.28 -51.32 -1469.6 -102.38 -1464.04 -153.15 -1457.09 -203.65 -1449.07 -253.95 -1440.21 -304.1 -1430.68 -354.17 -1420.51 -404.16 -1409.46 -453.91 -1396.98 -503.07 -1382.19 -551.13 -1364.09 -597.46 -1341.92 -641.61 -1315.49 -683.48 -1285.45 -723.56 -1253.25 -762.87 -1220.84 -802.7 -1190.05 -844.22 -1161.97 -887.92 -1136.49 -933.28 -1112.24 -978.7 -1086.96 -1021.88 -1058.18 -1060.52 -1024.14 -1093.2 -984.32 -1119.94 -939.74 -1142.44 -892.57 -1163.58 -845.39 -1186.5 -800.31 -1213.45 -758.25 -1244.79 -718.68 -1278.7 -679.9 -1311.66 -639.74 -1339.61 -596.43 -1359.48 -549.27 -1370.51 -498.82 -1374.73 -446.68 -1376.51 -394.71 -1381.09 -344.34 -1392.68 -296.02 -1412.66 -249.09 -1438.79 -202.21 -1465.5 -154.03 -1485.61 -103.88 -1492.68 -52.13 -1483.35 0 -1458.81 50.94 -1424.83 99.63 -1390.23 146.12 -1364.23 191.73 -1353.59 238.67 -1360.34 289.15 -1381.07 344.34 -1407.85 403.69 -1430.55 464.81 -1439.93 524.09 -1430.29 577.88 -1401.04 623.79 -1356.56 661.64 -1304.62 693.68 -1253.8 723.88 -1210.9 756.66 -1179.12 795.32 -1157.44 840.93 -1141.56 891.89 -1125.6 944.49 -1104.23 994.25 -1074.3 1037.44 -1035.57 1072.37 -990.38 1099.93 -942.44 1123.15 -895.41 1146.07 -851.62 1172.15 -811.47 1203.05 -773.61 1238.04 -735.7 1274.27 -695.42 1307.9 -651.34 1335.44 -603.3 1355.04 -552.35 1367.11 -500.14 1374.12 -448.29 1379.7 -397.81 1387.33 -348.86 1399.21 -300.88 1415.51 -252.94 1434.47 -204.22 1453.07 -154.3 1468.04 -103.28 1476.95 -51.64 1478.83" />
<polygon  stroke-width="14px"  transform="scale(1.04028494712849,1.0508050724599078) translate(5.734443847549082,-536.8791259979733)"  fill="rgba(0, 45, 151, 1)"  opacity="0.23606235319928145"  stroke="url(#bordergradient-radial)"  stroke-linejoin="round"  points="0 1177.84 40.74 1166.75 80.78 1155.16 120.42 1145.76 160.27 1140.4 200.95 1139.63 242.86 1142.56 286 1147.09 329.91 1150.54 373.75 1150.27 416.5 1144.32 457.27 1131.79 495.51 1112.94 531.14 1089 564.55 1061.76 596.49 1033.16 627.9 1004.85 659.64 977.95 692.31 952.88 726.15 929.43 760.93 906.84 795.96 884 830.23 859.73 862.56 832.97 891.82 803 917.24 769.66 938.62 733.33 956.53 694.96 972.23 655.77 987.44 617.02 1003.92 579.61 1022.91 543.89 1044.66 509.51 1068.13 475.56 1091.16 440.86 1110.93 404.34 1124.75 365.45 1130.98 324.3 1129.63 281.65 1122.73 238.64 1113.92 196.41 1107.62 155.67 1107.87 116.44 1117.18 78.12 1135.66 39.66 1160.89 0 1188.42 -41.5 1212.88 -84.81 1229.29 -129.2 1234.36 -173.48 1227.21 -216.39 1209.45 -257.08 1184.66 -295.37 1157.24 -331.83 1131.27 -367.57 1109.46 -403.81 1092.67 -441.47 1079.88 -480.79 1068.79 -521.29 1056.63 -561.82 1040.97 -601.01 1020.4 -637.62 994.72 -670.95 964.85 -701.01 932.43 -728.49 899.25 -754.56 866.82 -780.49 836.01 -807.33 806.97 -835.64 779.21 -865.4 751.81 -895.98 723.72 -926.32 693.94 -955.13 661.79 -981.15 626.98 -1003.38 589.64 -1021.29 550.33 -1035.02 509.87 -1045.38 469.2 -1053.84 429.17 -1062.24 390.35 -1072.49 352.88 -1086.06 316.46 -1103.61 280.41 -1124.65 243.92 -1147.56 206.28 -1169.86 167.07 -1188.74 126.31 -1201.77 84.44 -1207.5 42.11 -1205.9 0 -1198.34 -41.46 -1187.26 -82.2 -1175.53 -122.51 -1165.64 -162.9 -1159.11 -203.86 -1156.15 -245.64 -1155.66 -288.14 -1155.65 -330.86 -1153.84 -373.09 -1148.25 -414.1 -1137.73 -453.33 -1122.04 -490.57 -1101.84 -525.93 -1078.33 -559.8 -1052.82 -592.64 -1026.48 -624.89 -1000.04 -656.86 -973.83 -688.65 -947.84 -720.25 -921.87 -751.56 -895.68 -782.45 -869 -812.73 -841.6 -842.15 -813.26 -870.43 -783.74 -897.26 -752.89 -922.41 -720.66 -945.88 -687.22 -967.99 -652.92 -989.36 -618.22 -1010.79 -583.58 -1032.97 -549.24 -1056.17 -515.13 -1079.97 -480.83 -1103.21 -445.73 -1124.17 -409.16 -1141.01 -370.74 -1152.34 -330.43 -1157.76 -288.66 -1158.09 -246.16 -1155.32 -203.71 -1152.14 -161.92 -1151.17 -120.99 -1154.21 -80.71 -1161.66 -40.57 -1172.3 0 -1183.66 41.33 -1192.64 83.4 -1196.44 125.75 -1193.28 167.7 -1182.93 208.58 -1166.7 247.99 -1146.97 285.97 -1126.49 323.02 -1107.6 359.88 -1091.63 397.32 -1078.69 435.82 -1067.76 475.4 -1057.18 515.62 -1045.18 555.73 -1030.42 594.91 -1012.23 632.51 -990.68 668.22 -966.39 702.12 -940.17 734.54 -912.79 765.92 -884.74 796.62 -856.18 826.81 -827.06 856.44 -797.15 885.32 -766.22 913.15 -734.11 939.62 -700.7 964.44 -665.92 987.27 -629.75 1007.82 -592.23 1025.77 -553.5 1040.99 -513.88 1053.6 -473.79 1064.15 -433.76 1073.6 -394.26 1083.23 -355.56 1094.31 -317.63 1107.72 -280.14 1123.58 -242.54 1141.06 -204.26 1158.41 -164.91 1173.36 -124.41 1183.71 -83.07 1187.91 -41.4 1185.62" />
<polygon  stroke-width="14px"  transform="scale(0.9960173759054167,0.9450996695778185) translate(-9.434957847233623,-586.5950626507735)"  fill="rgba(0, 45, 151, 1)"  opacity="0.26592147297207097"  stroke="url(#bordergradient-radial)"  stroke-linejoin="round"  points="0 922.3 31.94 914.71 63.6 909.58 95.41 907.74 127.71 908.69 160.59 910.75 193.77 911.62 226.68 909.18 258.69 902.17 289.35 890.53 318.64 875.45 347.01 858.88 375.28 842.9 404.36 829.05 434.83 817.8 466.77 808.48 499.58 799.49 532.1 788.87 563 774.9 591.09 756.57 615.78 733.85 637.14 707.62 655.97 679.27 673.41 650.31 690.67 621.88 708.6 594.59 727.54 568.41 747.26 542.91 767.2 517.48 786.74 491.61 805.41 465 823.05 437.63 839.75 409.57 855.6 380.94 870.53 351.72 884.1 321.78 895.53 290.98 903.96 259.21 908.79 226.59 909.99 193.42 908.34 160.16 905.34 127.24 902.86 94.89 902.6 63.12 905.54 31.62 911.57 0 919.43 -32.11 927.03 -64.82 932.08 -97.97 932.74 -131.09 928.2 -163.67 918.97 -195.33 906.62 -226.05 893.33 -256.16 881.12 -286.29 871.21 -317.09 863.63 -348.93 857.21 -381.65 850 -414.57 839.92 -446.59 825.48 -476.59 806.21 -503.77 782.85 -528.04 757.07 -550.04 730.92 -571.06 706.2 -592.57 683.9 -615.78 663.96 -641.18 645.41 -668.34 626.71 -696.03 606.29 -722.55 583.09 -746.33 556.79 -766.35 527.83 -782.53 497.18 -795.66 466 -807.13 435.17 -818.44 405.17 -830.72 375.93 -844.35 347.04 -858.95 317.94 -873.54 288.21 -887.02 257.65 -898.53 226.34 -907.79 194.52 -915.13 162.44 -921.26 130.27 -926.91 98 -932.44 65.57 -937.63 32.89 -941.73 0 -943.75 -32.92 -942.84 -65.64 -938.76 -97.96 -932.01 -129.82 -923.75 -161.41 -915.42 -193.04 -908.2 -225.03 -902.55 -257.47 -897.92 -290.12 -892.91 -322.36 -885.67 -353.34 -874.55 -382.32 -858.71 -408.96 -838.48 -433.51 -815.32 -456.91 -791.38 -480.43 -768.85 -505.34 -749.19 -532.3 -732.64 -561.08 -718.15 -590.45 -703.67 -618.47 -686.89 -643.13 -665.98 -663.03 -640.28 -678.03 -610.5 -689.47 -578.54 -700 -546.9 -712.81 -517.88 -730.74 -492.89 -755.33 -471.98 -786.19 -453.91 -821 -436.53 -855.99 -417.49 -886.99 -394.91 -910.58 -367.9 -925.01 -336.68 -930.72 -302.41 -930.07 -266.69 -926.64 -231.04 -924.1 -196.42 -925.11 -163.12 -930.58 -130.78 -939.54 -98.75 -949.56 -66.4 -957.61 -33.44 -961.1 0 -958.66 33.48 -950.55 66.47 -938.44 98.63 -924.78 129.97 -912.02 160.81 -901.78 191.68 -894.44 223.01 -889.13 254.96 -884.15 287.28 -877.59 319.42 -868 350.7 -854.82 380.59 -838.43 408.93 -819.93 435.96 -800.65 462.25 -781.68 488.44 -763.5 514.99 -745.96 541.97 -728.38 569.07 -709.94 595.71 -690.03 621.3 -668.47 645.53 -645.52 668.46 -621.74 690.51 -597.65 712.25 -573.53 734.09 -549.27 756 -524.37 777.42 -498.24 797.35 -470.38 814.73 -440.68 828.81 -409.48 839.55 -377.44 847.75 -345.39 854.87 -313.98 862.64 -283.47 872.43 -253.7 884.77 -224.16 899.06 -194.2 913.66 -163.34 926.37 -131.42 935.08 -98.64 938.49 -65.49 936.51 -32.49 930.38" />
<polygon  stroke-width="14px"  transform="scale(1.0870557253855795,1.0492567046577599) translate(-8.267826617728979,-660.2346985345207)"  fill="rgba(0, 45, 151, 1)"  opacity="0.2969522757890525"  stroke="url(#bordergradient-radial)"  stroke-linejoin="round"  points="0 713.17 24.64 705.53 49.09 702.07 73.82 702.37 99.07 704.93 124.79 707.71 150.64 708.72 176.16 706.52 200.88 700.55 224.54 691.06 247.13 678.99 268.88 665.5 290.14 651.66 311.23 638.12 332.36 625.08 353.49 612.26 374.41 599.18 394.82 585.34 414.45 570.44 433.18 554.44 451.05 537.55 468.3 520.09 485.19 502.43 501.97 484.74 518.74 467.07 535.42 449.27 551.8 431.11 567.59 412.38 582.59 392.96 596.7 372.86 610.03 352.2 622.81 331.16 635.33 309.87 647.82 288.43 660.36 266.8 672.83 244.89 684.9 222.54 696.14 199.62 706.07 176.04 714.25 151.82 720.39 127.02 724.34 101.8 726.09 76.32 725.79 50.75 723.68 25.27 720.1 0 715.48 -24.99 710.31 -49.67 705.09 -74.11 700.28 -98.42 696.17 -122.75 692.8 -147.26 689.93 -172.02 686.98 -196.99 683.19 -221.98 677.7 -246.66 669.84 -270.63 659.22 -293.5 645.9 -315.03 630.4 -335.19 613.54 -354.23 596.31 -372.62 579.58 -390.93 563.93 -409.72 549.5 -429.32 536.02 -449.77 522.86 -470.79 509.29 -491.82 494.61 -512.18 478.34 -531.25 460.34 -548.61 440.75 -564.13 419.93 -577.98 398.34 -590.56 376.37 -602.32 354.31 -613.68 332.27 -624.9 310.23 -636.06 288.09 -647.05 265.73 -657.7 243.06 -667.81 220.05 -677.25 196.68 -685.91 172.97 -693.74 148.93 -700.64 124.57 -706.45 99.92 -710.95 75.03 -713.9 50.01 -715.19 24.96 -714.85 0 -713.17 -24.82 -710.67 -49.5 -707.94 -74.16 -705.57 -98.93 -703.9 -123.94 -702.88 -149.23 -702.08 -174.71 -700.73 -200.11 -697.88 -225.07 -692.68 -249.17 -684.58 -272.11 -673.49 -293.77 -659.81 -314.28 -644.37 -333.99 -628.15 -353.41 -612.12 -373.02 -596.96 -393.21 -582.95 -414.09 -569.94 -435.51 -557.43 -457.07 -544.72 -478.21 -531.11 -498.35 -516.05 -517 -499.26 -533.87 -480.7 -548.89 -460.57 -562.18 -439.22 -574.02 -417.05 -584.75 -394.42 -594.76 -371.65 -604.42 -348.96 -614.03 -326.48 -623.87 -304.28 -634.11 -282.32 -644.83 -260.53 -655.94 -238.74 -667.22 -216.79 -678.28 -194.49 -688.67 -171.7 -697.92 -148.35 -705.69 -124.43 -711.8 -100.04 -716.32 -75.29 -719.47 -50.31 -721.57 -25.2 -722.91 0 -723.63 25.27 -723.65 50.6 -722.73 75.96 -720.51 101.26 -716.72 126.38 -711.22 151.17 -704.12 175.56 -695.77 199.51 -686.6 223.09 -677 246.41 -667.13 269.54 -656.88 292.46 -645.88 315.02 -633.61 336.89 -619.66 357.76 -603.91 377.36 -586.67 395.71 -568.62 413.13 -550.7 430.25 -533.77 447.89 -518.37 466.74 -504.43 487.12 -491.28 508.74 -477.75 530.6 -462.5 551.19 -444.4 568.8 -422.88 582.05 -398.18 590.32 -371.26 594.13 -343.62 595.16 -316.87 595.95 -292.32 599.35 -270.6 607.77 -251.53 622.55 -234.2 643.46 -217.28 668.71 -199.35 695.23 -179.38 719.44 -156.88 738.05 -132.04 748.84 -105.57 751.18 -78.42 746.11 -51.47 736.05 -25.29 724.07" />

</g>

<use href="#contentsizebox" stroke="rgba(0, 45, 151, 1)" stroke-width="35" fill="none" opacity="1" />

<use href="#main-text-group" fill="rgba(0, 45, 151, 1)" stroke="rgba(0, 45, 151, 1)" stroke-width="22" transform="translate(22,22)" opacity="0.5" /><use href="#main-text-group" fill="white" stroke="white" stroke-width="9" opacity="1" /><text font-family="New Heterodox Mono" font-weight="900" font-size="235" x="-3115.5" y="-4475">THIS IS A FICTIONAL EVENT POSTER</text><text font-family="New Heterodox Mono" font-weight="900" font-size="506" x="-3115.5" y="4120">2024/OCT/15/TUE</text><text font-family="New Heterodox Mono" font-weight="900" font-size="506" x="-3115.5" y="4620">1 INFINITE LOOP</text>

<!--
gradient debug
<rect opacity="1" x="0" y="0" width="2000" height="2000" fill="url(#bordergradient-radial)" />
-->




</svg>